{
.appVersion = "3134";
.formatVersion = 3;
axes = (
{
name = Weight;
tag = wght;
}
);
date = "2022-08-24 11:26:22 +0000";
familyName = Sol;
featurePrefixes = (
{
automatic = 1;
code = "languagesystem DFLT dflt;
";
name = Languagesystems;
}
);
fontMaster = (
{
axesValues = (
100
);
id = m01;
metricValues = (
{
over = 16;
pos = 750;
},
{
over = -16;
},
{
over = -16;
pos = -150;
},
{
over = 16;
pos = 600;
}
);
name = Retrofuturism;
},
{
axesValues = (
900
);
iconName = Bold_Extended;
id = m002;
metricValues = (
{
over = 16;
pos = 750;
},
{
over = -16;
},
{
over = -16;
pos = -150;
},
{
over = 16;
pos = 600;
}
);
name = Brutalism;
}
);
glyphs = (
{
glyphname = A;
lastChange = "2022-03-23 15:28:01 +0000";
layers = (
{
layerId = m01;
shapes = (
{
closed = 1;
nodes = (
(72,0,l),
(72,74,o),
(77,258,o),
(83,414,c),
(202,414,l),
(221,0,l),
(264,0,l),
(215,750,l),
(164,750,ls),
(112,750,o),
(91,730,o),
(78,669,cs),
(65,610,o),
(39,189,o),
(25,0,c)
);
},
{
closed = 1;
nodes = (
(88,528,o),
(92,615,o),
(97,652,cs),
(104,715,o),
(119,736,o),
(158,736,cs),
(187,736,l),
(201,428,l),
(83,428,l)
);
}
);
width = 289;
},
{
layerId = m002;
shapes = (
{
closed = 1;
nodes = (
(72,0,l),
(72,74,o),
(77,258,o),
(83,414,c),
(202,414,l),
(221,0,l),
(264,0,l),
(215,750,l),
(164,750,ls),
(112,750,o),
(91,730,o),
(78,669,cs),
(65,610,o),
(39,189,o),
(25,0,c)
);
},
{
closed = 1;
nodes = (
(88,528,o),
(92,615,o),
(97,652,cs),
(104,715,o),
(119,736,o),
(158,736,cs),
(187,736,l),
(201,428,l),
(83,428,l)
);
}
);
width = 289;
}
);
unicode = 65;
},
{
glyphname = B;
lastChange = "2022-03-23 15:28:39 +0000";
layers = (
{
layerId = m01;
shapes = (
{
closed = 1;
nodes = (
(236,-3,o),
(272,39,o),
(272,150,cs),
(272,256,ls),
(272,309,o),
(268,349,o),
(253,378,cs),
(235,412,o),
(205,432,o),
(166,442,c),
(266,442,l),
(266,544,ls),
(266,684,o),
(222,750,o),
(117,750,cs),
(44,750,l),
(43,554,o),
(40,177,o),
(40,0,c),
(83,0,l),
(80,74,o),
(78,186,o),
(76,305,c),
(109,305,l),
(117,99,o),
(131,-3,o),
(192,-3,cs)
);
},
{
closed = 1;
nodes = (
(146,13,o),
(131,110,o),
(123,319,c),
(76,319,l),
(73,472,o),
(72,634,o),
(73,736,c),
(108,736,ls),
(201,736,o),
(230,684,o),
(230,529,cs),
(230,456,l),
(125,456,l),
(125,442,l),
(178,431,o),
(211,404,o),
(230,361,cs),
(237,346,o),
(238,298,o),
(238,252,cs),
(238,147,ls),
(238,42,o),
(217,13,o),
(191,13,cs)
);
}
);
width = 302;
},
{
layerId = m002;
shapes = (
{
closed = 1;
nodes = (
(236,-3,o),
(272,39,o),
(272,150,cs),
(272,256,ls),
(272,309,o),
(268,349,o),
(253,378,cs),
(235,412,o),
(205,432,o),
(166,442,c),
(266,442,l),
(266,544,ls),
(266,684,o),
(222,750,o),
(117,750,cs),
(44,750,l),
(43,554,o),
(40,177,o),
(40,0,c),
(83,0,l),
(80,74,o),
(78,186,o),
(76,305,c),
(109,305,l),
(117,99,o),
(131,-3,o),
(192,-3,cs)
);
},
{
closed = 1;
nodes = (
(146,13,o),
(131,110,o),
(123,319,c),
(76,319,l),
(73,472,o),
(72,634,o),
(73,736,c),
(108,736,ls),
(201,736,o),
(230,684,o),
(230,529,cs),
(230,456,l),
(125,456,l),
(125,442,l),
(178,431,o),
(211,404,o),
(230,361,cs),
(237,346,o),
(238,298,o),
(238,252,cs),
(238,147,ls),
(238,42,o),
(217,13,o),
(191,13,cs)
);
}
);
width = 302;
}
);
unicode = 66;
},
{
glyphname = C;
lastChange = "2022-03-29 15:36:40 +0000";
layers = (
{
layerId = m01;
shapes = (
{
closed = 1;
nodes = (
(212,-6,o),
(238,51,o),
(249,222,cs),
(252,271,o),
(256,422,o),
(257,488,c),
(217,488,l),
(221,390,o),
(222,309,o),
(220,207,cs),
(215,65,o),
(197,9,o),
(149,9,cs),
(95,9,o),
(76,75,o),
(78,262,cs),
(81,593,ls),
(82,704,o),
(94,741,o),
(132,741,cs),
(170,741,o),
(183,688,o),
(182,547,c),
(251,547,l),
(255,750,l),
(219,750,l),
(223,693,o),
(225,609,o),
(225,561,c),
(197,561,l),
(196,706,o),
(182,756,o),
(129,756,cs),
(68,756,o),
(44,715,o),
(43,566,cs),
(40,259,ls),
(38,66,o),
(64,-6,o),
(146,-6,cs)
);
}
);
width = 299;
},
{
layerId = m002;
shapes = (
{
closed = 1;
nodes = (
(212,-6,o),
(238,51,o),
(249,222,cs),
(252,271,o),
(256,422,o),
(257,488,c),
(217,488,l),
(221,390,o),
(222,309,o),
(220,207,cs),
(215,65,o),
(197,9,o),
(149,9,cs),
(95,9,o),
(76,75,o),
(78,262,cs),
(81,593,ls),
(82,704,o),
(94,741,o),
(132,741,cs),
(170,741,o),
(183,688,o),
(182,547,c),
(251,547,l),
(255,750,l),
(219,750,l),
(223,693,o),
(225,609,o),
(225,561,c),
(197,561,l),
(196,706,o),
(182,756,o),
(129,756,cs),
(68,756,o),
(44,715,o),
(43,566,cs),
(40,259,ls),
(38,66,o),
(64,-6,o),
(146,-6,cs)
);
}
);
width = 297;
}
);
unicode = 67;
},
{
glyphname = D;
lastChange = "2022-03-23 15:28:39 +0000";
layers = (
{
layerId = m01;
shapes = (
{
closed = 1;
nodes = (
(83,0,l),
(80,74,o),
(78,186,o),
(76,305,c),
(112,305,l),
(121,0,l),
(142,0,ls),
(227,0,o),
(261,67,o),
(261,257,cs),
(261,557,ls),
(261,645,o),
(224,750,o),
(112,750,cs),
(44,750,l),
(43,554,o),
(40,177,o),
(40,0,c)
);
},
{
closed = 1;
nodes = (
(127,319,l),
(76,319,l),
(73,472,o),
(72,634,o),
(73,736,c),
(108,736,ls),
(216,736,o),
(225,638,o),
(225,542,cs),
(225,236,ls),
(225,80,o),
(209,14,o),
(142,14,cs),
(136,14,l)
);
}
);
width = 291;
},
{
layerId = m002;
shapes = (
{
closed = 1;
nodes = (
(83,0,l),
(80,74,o),
(78,186,o),
(76,305,c),
(112,305,l),
(121,0,l),
(142,0,ls),
(227,0,o),
(261,67,o),
(261,257,cs),
(261,557,ls),
(261,645,o),
(224,750,o),
(112,750,cs),
(44,750,l),
(43,554,o),
(40,177,o),
(40,0,c)
);
},
{
closed = 1;
nodes = (
(127,319,l),
(76,319,l),
(73,472,o),
(72,634,o),
(73,736,c),
(108,736,ls),
(216,736,o),
(225,638,o),
(225,542,cs),
(225,236,ls),
(225,80,o),
(209,14,o),
(142,14,cs),
(136,14,l)
);
}
);
width = 291;
}
);
unicode = 68;
},
{
glyphname = E;
lastChange = "2022-03-23 15:31:15 +0000";
layers = (
{
layerId = m01;
shapes = (
{
closed = 1;
nodes = (
(169,-6,o),
(182,37,o),
(192,178,cs),
(196,237,o),
(198,333,o),
(199,383,c),
(233,383,l),
(234,295,o),
(229,173,o),
(225,0,c),
(267,0,l),
(266,180,o),
(264,217,o),
(262,397,c),
(184,397,l),
(183,341,o),
(181,239,o),
(176,167,cs),
(168,49,o),
(155,9,o),
(125,9,cs),
(91,9,o),
(77,75,o),
(78,262,cs),
(79,468,l),
(220,468,l),
(221,482,l),
(79,482,l),
(81,736,l),
(124,736,ls),
(208,736,o),
(219,720,o),
(223,671,cs),
(227,615,o),
(224,589,o),
(221,547,c),
(261,547,l),
(260,595,o),
(259,621,o),
(254,664,cs),
(246,730,o),
(220,750,o),
(137,750,cs),
(43,750,l),
(40,269,ls),
(39,60,o),
(59,-6,o),
(121,-6,cs)
);
}
);
width = 292;
},
{
layerId = m002;
shapes = (
{
closed = 1;
nodes = (
(169,-6,o),
(182,37,o),
(192,178,cs),
(196,237,o),
(198,333,o),
(199,383,c),
(233,383,l),
(234,295,o),
(229,173,o),
(225,0,c),
(267,0,l),
(266,180,o),
(264,217,o),
(262,397,c),
(184,397,l),
(183,341,o),
(181,239,o),
(176,167,cs),
(168,49,o),
(155,9,o),
(125,9,cs),
(91,9,o),
(77,75,o),
(78,262,cs),
(79,468,l),
(220,468,l),
(221,482,l),
(79,482,l),
(81,736,l),
(124,736,ls),
(208,736,o),
(219,720,o),
(223,671,cs),
(227,615,o),
(224,589,o),
(221,547,c),
(261,547,l),
(260,595,o),
(259,621,o),
(254,664,cs),
(246,730,o),
(220,750,o),
(137,750,cs),
(43,750,l),
(40,269,ls),
(39,60,o),
(59,-6,o),
(121,-6,cs)
);
}
);
width = 292;
}
);
unicode = 69;
},
{
glyphname = F;
lastChange = "2022-05-27 15:43:46 +0000";
layers = (
{
layerId = m01;
shapes = (
{
closed = 1;
nodes = (
(83,0,l),
(81,91,o),
(80,238,o),
(80,384,c),
(220,384,l),
(221,398,l),
(79.816,398,l),
(79,736,l),
(124,736,ls),
(208,736,o),
(219,720,o),
(223,671,cs),
(227,615,o),
(224,548,o),
(221,506,c),
(261,506,l),
(260,554,o),
(259,621,o),
(254,664,cs),
(246,730,o),
(220,750,o),
(137,750,cs),
(50,750,l),
(52,554,o),
(42,177,o),
(40,0,c)
);
}
);
width = 271;
},
{
layerId = m002;
shapes = (
{
closed = 1;
nodes = (
(83,0,l),
(81,91,o),
(80,238,o),
(80,384,c),
(220,384,l),
(221,398,l),
(79.816,398,l),
(79,736,l),
(124,736,ls),
(208,736,o),
(219,720,o),
(223,671,cs),
(227,615,o),
(224,548,o),
(221,506,c),
(261,506,l),
(260,554,o),
(259,621,o),
(254,664,cs),
(246,730,o),
(220,750,o),
(137,750,cs),
(50,750,l),
(52,554,o),
(42,177,o),
(40,0,c)
);
}
);
width = 276;
}
);
unicode = 70;
},
{
glyphname = G;
lastChange = "2022-03-23 15:31:45 +0000";
layers = (
{
layerId = m01;
shapes = (
{
closed = 1;
nodes = (
(169,-6,o),
(185,40,o),
(198,178,cs),
(204,238,o),
(207,338,o),
(208,473,c),
(236,473,l),
(237,298,o),
(232,175,o),
(228,0,c),
(270,0,l),
(269,177,o),
(266,284,o),
(265,487,c),
(123,487,l),
(122,473,l),
(193,473,l),
(192,338,o),
(189,238,o),
(182,167,cs),
(171,53,o),
(155,9,o),
(128,9,cs),
(91,9,o),
(76,75,o),
(78,262,cs),
(81,593,ls),
(82,704,o),
(94,741,o),
(132,741,cs),
(180,741,o),
(193,688,o),
(192,547,c),
(261,547,l),
(265,750,l),
(229,750,l),
(233,693,o),
(235,609,o),
(235,561,c),
(207,561,l),
(206,706,o),
(192,756,o),
(129,756,cs),
(68,756,o),
(45,715,o),
(43,566,cs),
(40,269,ls),
(38,60,o),
(59,-6,o),
(123,-6,cs)
);
}
);
width = 310;
},
{
layerId = m002;
shapes = (
{
closed = 1;
nodes = (
(169,-6,o),
(185,40,o),
(198,178,cs),
(204,238,o),
(207,338,o),
(208,473,c),
(236,473,l),
(237,298,o),
(232,175,o),
(228,0,c),
(270,0,l),
(269,177,o),
(266,284,o),
(265,487,c),
(123,487,l),
(122,473,l),
(193,473,l),
(192,338,o),
(189,238,o),
(182,167,cs),
(171,53,o),
(155,9,o),
(128,9,cs),
(91,9,o),
(76,75,o),
(78,262,cs),
(81,593,ls),
(82,704,o),
(94,741,o),
(132,741,cs),
(180,741,o),
(193,688,o),
(192,547,c),
(261,547,l),
(265,750,l),
(229,750,l),
(233,693,o),
(235,609,o),
(235,561,c),
(207,561,l),
(206,706,o),
(192,756,o),
(129,756,cs),
(68,756,o),
(45,715,o),
(43,566,cs),
(40,269,ls),
(38,60,o),
(59,-6,o),
(123,-6,cs)
);
}
);
width = 310;
}
);
unicode = 71;
},
{
glyphname = H;
lastChange = "2022-03-23 15:28:13 +0000";
layers = (
{
layerId = m01;
shapes = (
{
closed = 1;
nodes = (
(88,0,ls),
(116,0,o),
(130,25,o),
(130,69,cs),
(130,439,l),
(235,439,l),
(235,276,o),
(235,103,o),
(234,0,c),
(264,0,l),
(265,196,o),
(268,574,o),
(269,750,c),
(233,750,l),
(234,678,o),
(235,569,o),
(235,453,c),
(115,453,l),
(115,81,ls),
(115,28,o),
(106,14,o),
(86,14,cs),
(78,14,l),
(77,750,l),
(47,750,l),
(40,0,l)
);
}
);
width = 309;
},
{
layerId = m002;
shapes = (
{
closed = 1;
nodes = (
(88,0,ls),
(116,0,o),
(130,25,o),
(130,69,cs),
(130,439,l),
(235,439,l),
(235,276,o),
(235,103,o),
(234,0,c),
(264,0,l),
(265,196,o),
(268,574,o),
(269,750,c),
(233,750,l),
(234,678,o),
(235,569,o),
(235,453,c),
(115,453,l),
(115,81,ls),
(115,28,o),
(106,14,o),
(86,14,cs),
(78,14,l),
(77,750,l),
(47,750,l),
(40,0,l)
);
}
);
width = 309;
}
);
unicode = 72;
},
{
glyphname = I;
lastChange = "2022-03-29 17:35:04 +0000";
layers = (
{
layerId = m01;
shapes = (
{
closed = 1;
nodes = (
(173,0,l),
(174,16,l),
(150,18,ls),
(118,21,o),
(114,30,o),
(112,91,cs),
(110,188,o),
(110,373,o),
(110,517,cs),
(110,603,o),
(112,640,o),
(140,685,cs),
(180,750,l),
(24,750,l),
(23,722,l),
(149,728,l),
(119,680,ls),
(89,632,o),
(79,601,o),
(77,476,cs),
(75,380,o),
(73,210,o),
(70,91,cs),
(68,30,o),
(64,21,o),
(32,18,cs),
(11,16,l),
(10,0,l)
);
}
);
width = 192;
},
{
layerId = m002;
shapes = (
{
closed = 1;
nodes = (
(173,0,l),
(174,16,l),
(150,18,ls),
(118,21,o),
(114,30,o),
(112,91,cs),
(110,188,o),
(110,373,o),
(110,517,cs),
(110,603,o),
(112,640,o),
(140,685,cs),
(180,750,l),
(24,750,l),
(23,722,l),
(149,728,l),
(119,680,ls),
(89,632,o),
(79,601,o),
(77,476,cs),
(75,380,o),
(73,210,o),
(70,91,cs),
(68,30,o),
(64,21,o),
(32,18,cs),
(11,16,l),
(10,0,l)
);
}
);
width = 190;
}
);
unicode = 73;
},
{
glyphname = J;
lastChange = "2022-03-23 15:28:13 +0000";
layers = (
{
layerId = m01;
shapes = (
{
closed = 1;
nodes = (
(215,-6,o),
(254,60,o),
(254,269,cs),
(254,750,l),
(166,750,ls),
(83,750,o),
(57,730,o),
(49,664,cs),
(44,621,o),
(43,595,o),
(42,547,c),
(80,547,l),
(79,589,o),
(76,625,o),
(80,671,cs),
(84,720,o),
(95,736,o),
(179,736,cs),
(216,736,l),
(216,262,ls),
(216,75,o),
(194,9,o),
(148,9,cs),
(109,9,o),
(86,43,o),
(77,154,cs),
(71,229,o),
(76,381,o),
(80,488,c),
(40,488,l),
(40,420,o),
(42,245,o),
(47,179,cs),
(55,47,o),
(86,-6,o),
(148,-6,cs)
);
}
);
width = 294;
},
{
layerId = m002;
shapes = (
{
closed = 1;
nodes = (
(215,-6,o),
(254,60,o),
(254,269,cs),
(254,750,l),
(166,750,ls),
(83,750,o),
(57,730,o),
(49,664,cs),
(44,621,o),
(43,595,o),
(42,547,c),
(80,547,l),
(79,589,o),
(76,625,o),
(80,671,cs),
(84,720,o),
(95,736,o),
(179,736,cs),
(216,736,l),
(216,262,ls),
(216,75,o),
(194,9,o),
(148,9,cs),
(109,9,o),
(86,43,o),
(77,154,cs),
(71,229,o),
(76,381,o),
(80,488,c),
(40,488,l),
(40,420,o),
(42,245,o),
(47,179,cs),
(55,47,o),
(86,-6,o),
(148,-6,cs)
);
}
);
width = 294;
}
);
unicode = 74;
},
{
glyphname = K;
lastChange = "2022-03-23 15:28:13 +0000";
layers = (
{
layerId = m01;
shapes = (
{
closed = 1;
nodes = (
(224,-3,o),
(246,55,o),
(254,179,cs),
(259,245,o),
(261,402,o),
(261,468,c),
(221,468,l),
(225,363,o),
(228,179,o),
(221,102,cs),
(216,42,o),
(206,13,o),
(190,13,cs),
(169,13,o),
(151,88,o),
(146,190,cs),
(140,294,o),
(138,395,o),
(135,496,c),
(141,496,ls),
(187,496,o),
(222,520,o),
(232,601,cs),
(250,750,l),
(214,750,l),
(207,620,ls),
(202,527,o),
(185,510,o),
(137,510,cs),
(120,510,l),
(123,390,o),
(126,296,o),
(130,211,cs),
(136,64,o),
(156,-3,o),
(190,-3,cs)
);
},
{
closed = 1;
nodes = (
(83,0,l),
(77,177,o),
(71,571,o),
(73,750,c),
(44,750,l),
(43,554,o),
(40,177,o),
(40,0,c)
);
}
);
width = 291;
},
{
layerId = m002;
shapes = (
{
closed = 1;
nodes = (
(224,-3,o),
(246,55,o),
(254,179,cs),
(259,245,o),
(261,402,o),
(261,468,c),
(221,468,l),
(225,363,o),
(228,179,o),
(221,102,cs),
(216,42,o),
(206,13,o),
(190,13,cs),
(169,13,o),
(151,88,o),
(146,190,cs),
(140,294,o),
(138,395,o),
(135,496,c),
(141,496,ls),
(187,496,o),
(222,520,o),
(232,601,cs),
(250,750,l),
(214,750,l),
(207,620,ls),
(202,527,o),
(185,510,o),
(137,510,cs),
(120,510,l),
(123,390,o),
(126,296,o),
(130,211,cs),
(136,64,o),
(156,-3,o),
(190,-3,cs)
);
},
{
closed = 1;
nodes = (
(83,0,l),
(77,177,o),
(71,571,o),
(73,750,c),
(44,750,l),
(43,554,o),
(40,177,o),
(40,0,c)
);
}
);
width = 291;
}
);
unicode = 75;
},
{
glyphname = L;
lastChange = "2022-03-23 15:28:39 +0000";
layers = (
{
layerId = m01;
shapes = (
{
closed = 1;
nodes = (
(210,-3,o),
(233,63,o),
(239,178,cs),
(243,245,o),
(244,322,o),
(244,388,c),
(207,388,l),
(211,282,o),
(211,179,o),
(205,102,cs),
(200,42,o),
(189,13,o),
(173,13,cs),
(150,13,o),
(131,70,o),
(123,279,c),
(76,279,l),
(74,400,o),
(74,522,o),
(77,633,cs),
(79,701,o),
(100,714,o),
(177,714,cs),
(187,714,o),
(201,713,o),
(214,711,c),
(217,750,l),
(199,750,ls),
(93,750,o),
(55,711,o),
(49,557,cs),
(45,442,o),
(43,195,o),
(40,0,c),
(83,0,l),
(80,84,o),
(77,174,o),
(76,265,c),
(108,265,l),
(116,61,o),
(135,-3,o),
(173,-3,cs)
);
}
);
width = 254;
},
{
layerId = m002;
shapes = (
{
closed = 1;
nodes = (
(210,-3,o),
(233,63,o),
(239,178,cs),
(243,245,o),
(244,322,o),
(244,388,c),
(207,388,l),
(211,282,o),
(211,179,o),
(205,102,cs),
(200,42,o),
(189,13,o),
(173,13,cs),
(150,13,o),
(131,70,o),
(123,279,c),
(76,279,l),
(74,400,o),
(74,522,o),
(77,633,cs),
(79,701,o),
(100,714,o),
(177,714,cs),
(187,714,o),
(201,713,o),
(214,711,c),
(217,750,l),
(199,750,ls),
(93,750,o),
(55,711,o),
(49,557,cs),
(45,442,o),
(43,195,o),
(40,0,c),
(83,0,l),
(80,84,o),
(77,174,o),
(76,265,c),
(108,265,l),
(116,61,o),
(135,-3,o),
(173,-3,cs)
);
}
);
width = 254;
}
);
unicode = 76;
},
{
glyphname = M;
lastChange = "2022-03-23 15:28:39 +0000";
layers = (
{
layerId = m01;
shapes = (
{
closed = 1;
nodes = (
(78,0,l),
(72,736,l),
(78,736,ls),
(119,736,o),
(138,709,o),
(140,641,cs),
(160,0,l),
(182,0,ls),
(223,0,o),
(239,29,o),
(241,97,cs),
(264,736,l),
(327,736,l),
(321,0,l),
(364,0,l),
(356,750,l),
(249,750,l),
(226,98,ls),
(224,38,o),
(213,14,o),
(182,14,cs),
(175,14,l),
(155,642,ls),
(153,720,o),
(127,750,o),
(77,750,cs),
(43,750,l),
(35,0,l)
);
}
);
width = 399;
},
{
layerId = m002;
shapes = (
{
closed = 1;
nodes = (
(78,0,l),
(72,736,l),
(78,736,ls),
(119,736,o),
(138,709,o),
(140,641,cs),
(160,0,l),
(182,0,ls),
(223,0,o),
(239,29,o),
(241,97,cs),
(264,736,l),
(327,736,l),
(321,0,l),
(364,0,l),
(356,750,l),
(249,750,l),
(226,98,ls),
(224,38,o),
(213,14,o),
(182,14,cs),
(175,14,l),
(155,642,ls),
(153,720,o),
(127,750,o),
(77,750,cs),
(43,750,l),
(35,0,l)
);
}
);
width = 399;
}
);
unicode = 77;
},
{
glyphname = N;
lastChange = "2022-03-23 15:28:13 +0000";
layers = (
{
layerId = m01;
shapes = (
{
closed = 1;
nodes = (
(82,0,l),
(80,185,o),
(79,369,o),
(77,554,cs),
(77,676,o),
(82,737,o),
(110,737,cs),
(136,737,o),
(148,658,o),
(148,424,cs),
(148,160,ls),
(148,44,o),
(168,0,o),
(221,0,cs),
(261,0,l),
(266,196,o),
(269,573,o),
(266,750,c),
(227,750,l),
(230,577,o),
(233,199,o),
(232,14,c),
(225,14,ls),
(177,14,o),
(163,55,o),
(163,169,cs),
(163,424,ls),
(163,672,o),
(153,756,o),
(105,756,cs),
(59,756,o),
(43,706,o),
(43,554,cs),
(40,0,l)
);
}
);
width = 307;
},
{
layerId = m002;
shapes = (
{
closed = 1;
nodes = (
(82,0,l),
(80,185,o),
(79,369,o),
(77,554,cs),
(77,676,o),
(82,737,o),
(110,737,cs),
(136,737,o),
(148,658,o),
(148,424,cs),
(148,160,ls),
(148,44,o),
(168,0,o),
(221,0,cs),
(261,0,l),
(266,196,o),
(269,573,o),
(266,750,c),
(227,750,l),
(230,577,o),
(233,199,o),
(232,14,c),
(225,14,ls),
(177,14,o),
(163,55,o),
(163,169,cs),
(163,424,ls),
(163,672,o),
(153,756,o),
(105,756,cs),
(59,756,o),
(43,706,o),
(43,554,cs),
(40,0,l)
);
}
);
width = 307;
}
);
unicode = 78;
},
{
glyphname = O;
lastChange = "2022-03-23 15:28:39 +0000";
layers = (
{
layerId = m01;
shapes = (
{
closed = 1;
nodes = (
(230,-6,o),
(254,71,o),
(254,241,cs),
(254,750,l),
(198,750,ls),
(66,750,o),
(40,676,o),
(40,534,cs),
(40,241,ls),
(40,71,o),
(62,-6,o),
(146,-6,cs)
);
},
{
closed = 1;
nodes = (
(92,9,o),
(78,71,o),
(78,231,cs),
(78,550,ls),
(78,687,o),
(98,735,o),
(190,735,cs),
(216,735,l),
(216,231,ls),
(216,71,o),
(199,9,o),
(146,9,cs)
);
}
);
width = 294;
},
{
layerId = m002;
shapes = (
{
closed = 1;
nodes = (
(230,-6,o),
(254,71,o),
(254,241,cs),
(254,750,l),
(198,750,ls),
(66,750,o),
(40,676,o),
(40,534,cs),
(40,241,ls),
(40,71,o),
(62,-6,o),
(146,-6,cs)
);
},
{
closed = 1;
nodes = (
(92,9,o),
(78,71,o),
(78,231,cs),
(78,550,ls),
(78,687,o),
(98,735,o),
(190,735,cs),
(216,735,l),
(216,231,ls),
(216,71,o),
(199,9,o),
(146,9,cs)
);
}
);
width = 294;
}
);
unicode = 79;
},
{
glyphname = P;
lastChange = "2022-03-23 15:33:08 +0000";
layers = (
{
layerId = m01;
shapes = (
{
closed = 1;
nodes = (
(83,0,l),
(80,83,o),
(77,213,o),
(75,346,c),
(286,346,l),
(284,700,o),
(253,756,o),
(193,756,cs),
(122,756,o),
(102,674,o),
(101,360,c),
(75,360,l),
(73,508,o),
(72,658,o),
(73,750,c),
(44,750,l),
(43,554,o),
(40,177,o),
(40,0,c)
);
},
{
closed = 1;
nodes = (
(117,642,o),
(135,737,o),
(187,737,cs),
(243,737,o),
(248,667,o),
(248,360,c),
(116,360,l)
);
}
);
width = 301;
},
{
layerId = m002;
shapes = (
{
closed = 1;
nodes = (
(83,0,l),
(80,83,o),
(77,213,o),
(75,346,c),
(286,346,l),
(284,700,o),
(253,756,o),
(193,756,cs),
(122,756,o),
(102,674,o),
(101,360,c),
(75,360,l),
(73,508,o),
(72,658,o),
(73,750,c),
(44,750,l),
(43,554,o),
(40,177,o),
(40,0,c)
);
},
{
closed = 1;
nodes = (
(117,642,o),
(135,737,o),
(187,737,cs),
(243,737,o),
(248,667,o),
(248,360,c),
(116,360,l)
);
}
);
width = 301;
}
);
unicode = 80;
},
{
glyphname = Q;
lastChange = "2022-03-23 15:28:39 +0000";
layers = (
{
layerId = m01;
shapes = (
{
closed = 1;
nodes = (
(158,-6,o),
(177,20,o),
(183,88,cs),
(185,114,o),
(186,132,o),
(184,168,c),
(199,115,o),
(213,57,o),
(227,0,c),
(275,0,l),
(239,96,o),
(206,183,o),
(178,265,c),
(254,265,l),
(254,540,ls),
(254,682,o),
(226,756,o),
(146,756,cs),
(66,756,o),
(40,682,o),
(40,534,cs),
(40,211,ls),
(40,48,o),
(60,-6,o),
(120,-6,cs)
);
},
{
closed = 1;
nodes = (
(90,9,o),
(78,65,o),
(78,201,cs),
(78,550,ls),
(78,693,o),
(92,741,o),
(146,741,cs),
(200,741,o),
(216,693,o),
(216,556,cs),
(216,279,l),
(154,279,l),
(174,207,l),
(174,142,o),
(173,119,o),
(169,88,cs),
(162,31,o),
(148,9,o),
(124,9,cs)
);
}
);
width = 305;
},
{
layerId = m002;
shapes = (
{
closed = 1;
nodes = (
(158,-6,o),
(177,20,o),
(183,88,cs),
(185,114,o),
(186,132,o),
(184,168,c),
(199,115,o),
(213,57,o),
(227,0,c),
(275,0,l),
(239,96,o),
(206,183,o),
(178,265,c),
(254,265,l),
(254,540,ls),
(254,682,o),
(226,756,o),
(146,756,cs),
(66,756,o),
(40,682,o),
(40,534,cs),
(40,211,ls),
(40,48,o),
(60,-6,o),
(120,-6,cs)
);
},
{
closed = 1;
nodes = (
(90,9,o),
(78,65,o),
(78,201,cs),
(78,550,ls),
(78,693,o),
(92,741,o),
(146,741,cs),
(200,741,o),
(216,693,o),
(216,556,cs),
(216,279,l),
(154,279,l),
(174,207,l),
(174,142,o),
(173,119,o),
(169,88,cs),
(162,31,o),
(148,9,o),
(124,9,cs)
);
}
);
width = 305;
}
);
unicode = 81;
},
{
glyphname = R;
lastChange = "2022-03-23 15:28:13 +0000";
layers = (
{
layerId = m01;
shapes = (
{
closed = 1;
nodes = (
(229,-3,o),
(251,55,o),
(259,179,cs),
(264,245,o),
(266,382,o),
(266,448,c),
(226,448,l),
(230,343,o),
(233,179,o),
(226,102,cs),
(221,42,o),
(211,13,o),
(195,13,cs),
(171,13,o),
(153,71,o),
(146,190,cs),
(140,294,o),
(138,395,o),
(135,496,c),
(266,496,l),
(266,598,ls),
(266,686,o),
(229,750,o),
(122,750,cs),
(44,750,l),
(43,554,o),
(40,177,o),
(40,0,c),
(83,0,l),
(77,173,o),
(71,551,o),
(73,736,c),
(118,736,ls),
(221,736,o),
(230,679,o),
(230,583,cs),
(230,510,l),
(120,510,l),
(123,390,o),
(126,296,o),
(130,211,cs),
(136,64,o),
(158,-3,o),
(195,-3,cs)
);
}
);
width = 291;
},
{
layerId = m002;
shapes = (
{
closed = 1;
nodes = (
(229,-3,o),
(251,55,o),
(259,179,cs),
(264,245,o),
(266,382,o),
(266,448,c),
(226,448,l),
(230,343,o),
(233,179,o),
(226,102,cs),
(221,42,o),
(211,13,o),
(195,13,cs),
(171,13,o),
(153,71,o),
(146,190,cs),
(140,294,o),
(138,395,o),
(135,496,c),
(266,496,l),
(266,598,ls),
(266,686,o),
(229,750,o),
(122,750,cs),
(44,750,l),
(43,554,o),
(40,177,o),
(40,0,c),
(83,0,l),
(77,173,o),
(71,551,o),
(73,736,c),
(118,736,ls),
(221,736,o),
(230,679,o),
(230,583,cs),
(230,510,l),
(120,510,l),
(123,390,o),
(126,296,o),
(130,211,cs),
(136,64,o),
(158,-3,o),
(195,-3,cs)
);
}
);
width = 291;
}
);
unicode = 82;
},
{
glyphname = S;
lastChange = "2022-03-23 15:36:49 +0000";
layers = (
{
layerId = m01;
shapes = (
{
closed = 1;
nodes = (
(241,-6,o),
(268,58,o),
(266,193,cs),
(265,279,ls),
(264,374,o),
(239,413,o),
(161,459,cs),
(103,493,o),
(84,531,o),
(84,612,cs),
(85,704,o),
(95,741,o),
(130,741,cs),
(175,741,o),
(188,688,o),
(187,508,c),
(258,508,l),
(262,750,l),
(226,750,l),
(230,693,o),
(232,575,o),
(232,522,c),
(202,522,l),
(202,705,o),
(187,756,o),
(127,756,cs),
(69,756,o),
(47,715,o),
(46,618,cs),
(45,540,o),
(68,499,o),
(142,453,cs),
(199,416,o),
(224,373,o),
(225,264,cs),
(226,176,ls),
(227,75,o),
(213,9,o),
(181,9,cs),
(149,9,o),
(136,49,o),
(128,167,cs),
(123,239,o),
(121,351,o),
(120,399,cs),
(120,407,l),
(46,412,l),
(46,399,ls),
(45,294,o),
(41,177,o),
(40,0,c),
(82,0,l),
(78,175,o),
(74,308,o),
(75,396,c),
(105,394,l),
(106,344,o),
(108,237,o),
(112,178,cs),
(122,37,o),
(135,-6,o),
(185,-6,cs)
);
}
);
width = 306;
},
{
layerId = m002;
shapes = (
{
closed = 1;
nodes = (
(241,-6,o),
(268,58,o),
(266,193,cs),
(265,279,ls),
(264,374,o),
(239,413,o),
(161,459,cs),
(103,493,o),
(84,531,o),
(84,612,cs),
(85,704,o),
(95,741,o),
(130,741,cs),
(175,741,o),
(188,688,o),
(187,508,c),
(258,508,l),
(262,750,l),
(226,750,l),
(230,693,o),
(232,575,o),
(232,522,c),
(202,522,l),
(202,705,o),
(187,756,o),
(127,756,cs),
(69,756,o),
(47,715,o),
(46,618,cs),
(45,540,o),
(68,499,o),
(142,453,cs),
(199,416,o),
(224,373,o),
(225,264,cs),
(226,176,ls),
(227,75,o),
(213,9,o),
(181,9,cs),
(149,9,o),
(136,49,o),
(128,167,cs),
(123,239,o),
(121,351,o),
(120,399,cs),
(120,407,l),
(46,412,l),
(46,399,ls),
(45,294,o),
(41,177,o),
(40,0,c),
(82,0,l),
(78,175,o),
(74,308,o),
(75,396,c),
(105,394,l),
(106,344,o),
(108,237,o),
(112,178,cs),
(122,37,o),
(135,-6,o),
(185,-6,cs)
);
}
);
width = 306;
}
);
unicode = 83;
},
{
glyphname = T;
lastChange = "2022-03-23 15:28:13 +0000";
layers = (
{
layerId = m01;
shapes = (
{
closed = 1;
nodes = (
(221,-6,o),
(233,51,o),
(243,222,cs),
(248,311,o),
(250,422,o),
(251,488,c),
(217,488,l),
(220,390,o),
(222,309,o),
(219,207,cs),
(216,94,o),
(208,10,o),
(184,10,cs),
(159,10,o),
(150,88,o),
(151,262,cs),
(154,736,l),
(163,736,ls),
(193,736,o),
(225,731,o),
(255,726,c),
(256,750,l),
(158,750,ls),
(71,750,o),
(40,729,o),
(32,664,cs),
(27,621,o),
(25,399,o),
(25,351,c),
(63,351,l),
(60,453,o),
(57,535,o),
(57,620,cs),
(57,702,o),
(75,731,o),
(132,735,c),
(113,259,ls),
(105,60,o),
(122,-6,o),
(177,-6,cs)
);
}
);
width = 286;
},
{
layerId = m002;
shapes = (
{
closed = 1;
nodes = (
(221,-6,o),
(233,51,o),
(243,222,cs),
(248,311,o),
(250,422,o),
(251,488,c),
(217,488,l),
(220,390,o),
(222,309,o),
(219,207,cs),
(216,94,o),
(208,10,o),
(184,10,cs),
(159,10,o),
(150,88,o),
(151,262,cs),
(154,736,l),
(163,736,ls),
(193,736,o),
(225,731,o),
(255,726,c),
(256,750,l),
(158,750,ls),
(71,750,o),
(40,729,o),
(32,664,cs),
(27,621,o),
(25,399,o),
(25,351,c),
(63,351,l),
(60,453,o),
(57,535,o),
(57,620,cs),
(57,702,o),
(75,731,o),
(132,735,c),
(113,259,ls),
(105,60,o),
(122,-6,o),
(177,-6,cs)
);
}
);
width = 286;
}
);
unicode = 84;
},
{
glyphname = U;
lastChange = "2022-03-23 15:28:13 +0000";
layers = (
{
layerId = m01;
shapes = (
{
closed = 1;
nodes = (
(189,-6,o),
(190,78,o),
(196,326,cs),
(199,466,o),
(199,602,o),
(200,736,c),
(230,736,l),
(231,551,o),
(226,173,o),
(221,0,c),
(263,0,l),
(263,177,o),
(260,554,o),
(259,750,c),
(185,750,l),
(184,611,o),
(185,471,o),
(181,326,cs),
(174,92,o),
(172,13,o),
(120,13,cs),
(83,13,o),
(76,74,o),
(76,196,cs),
(76,381,o),
(76,565,o),
(79,750,c),
(41,750,l),
(40,565,o),
(40,381,o),
(41,210,cs),
(42,44,o),
(60,-6,o),
(114,-6,cs)
);
}
);
width = 303;
},
{
layerId = m002;
shapes = (
{
closed = 1;
nodes = (
(189,-6,o),
(190,78,o),
(196,326,cs),
(199,466,o),
(199,602,o),
(200,736,c),
(230,736,l),
(231,551,o),
(226,173,o),
(221,0,c),
(263,0,l),
(263,177,o),
(260,554,o),
(259,750,c),
(185,750,l),
(184,611,o),
(185,471,o),
(181,326,cs),
(174,92,o),
(172,13,o),
(120,13,cs),
(83,13,o),
(76,74,o),
(76,196,cs),
(76,381,o),
(76,565,o),
(79,750,c),
(41,750,l),
(40,565,o),
(40,381,o),
(41,210,cs),
(42,44,o),
(60,-6,o),
(114,-6,cs)
);
}
);
width = 303;
}
);
unicode = 85;
},
{
glyphname = V;
lastChange = "2022-03-23 15:28:13 +0000";
layers = (
{
layerId = m01;
shapes = (
{
closed = 1;
nodes = (
(119,0,ls),
(171,0,o),
(192,20,o),
(205,81,cs),
(218,140,o),
(250,651,o),
(259,750,c),
(212,750,l),
(212,666,o),
(198,195,o),
(186,98,cs),
(179,35,o),
(164,14,o),
(125,14,cs),
(106,14,l),
(63,750,l),
(20,750,l),
(78,0,l)
);
}
);
width = 279;
},
{
layerId = m002;
shapes = (
{
closed = 1;
nodes = (
(119,0,ls),
(171,0,o),
(192,20,o),
(205,81,cs),
(218,140,o),
(250,651,o),
(259,750,c),
(212,750,l),
(212,666,o),
(198,195,o),
(186,98,cs),
(179,35,o),
(164,14,o),
(125,14,cs),
(106,14,l),
(63,750,l),
(20,750,l),
(78,0,l)
);
}
);
width = 279;
}
);
unicode = 86;
},
{
glyphname = W;
lastChange = "2022-03-23 15:28:39 +0000";
layers = (
{
layerId = m01;
shapes = (
{
closed = 1;
nodes = (
(189,0,l),
(158,654,ls),
(155,717,o),
(168,736,o),
(211,736,cs),
(251,736,l),
(222,0,l),
(245,0,ls),
(303,0,o),
(323,23,o),
(335,81,cs),
(348,140,o),
(380,651,o),
(389,750,c),
(342,750,l),
(342,666,o),
(328,195,o),
(316,98,cs),
(309,35,o),
(291,14,o),
(246,14,cs),
(238,14,l),
(267,750,l),
(211,750,ls),
(159,750,o),
(140,724,o),
(143,664,cs),
(173,14,l),
(106,14,l),
(63,750,l),
(20,750,l),
(78,0,l)
);
}
);
width = 409;
},
{
layerId = m002;
shapes = (
{
closed = 1;
nodes = (
(189,0,l),
(158,654,ls),
(155,717,o),
(168,736,o),
(211,736,cs),
(251,736,l),
(222,0,l),
(245,0,ls),
(303,0,o),
(323,23,o),
(335,81,cs),
(348,140,o),
(380,651,o),
(389,750,c),
(342,750,l),
(342,666,o),
(328,195,o),
(316,98,cs),
(309,35,o),
(291,14,o),
(246,14,cs),
(238,14,l),
(267,750,l),
(211,750,ls),
(159,750,o),
(140,724,o),
(143,664,cs),
(173,14,l),
(106,14,l),
(63,750,l),
(20,750,l),
(78,0,l)
);
}
);
width = 409;
}
);
unicode = 87;
},
{
glyphname = X;
lastChange = "2022-03-23 15:28:13 +0000";
layers = (
{
layerId = m01;
shapes = (
{
closed = 1;
nodes = (
(241,-6,o),
(253,40,o),
(261,179,cs),
(264,245,o),
(267,452,o),
(267,548,c),
(227,548,l),
(230,464,o),
(239,176,o),
(236,102,cs),
(234,40,o),
(226,9,o),
(212,9,cs),
(198,9,o),
(188,50,o),
(181,139,cs),
(157,432,l),
(194,548,o),
(230,663,o),
(255,750,c),
(212,750,l),
(199,674,o),
(176,554,o),
(154,466,c),
(140,644,ls),
(133,728,o),
(124,756,o),
(92,756,cs),
(48,756,o),
(35,665,o),
(38,453,c),
(72,453,l),
(66,668,o),
(70,741,o),
(96,741,cs),
(112,741,o),
(120,712,o),
(125,644,cs),
(134,531,l),
(87,312,o),
(59,160,o),
(30,0,c),
(78,0,l),
(91,151,o),
(112,324,o),
(138,486,c),
(166,137,ls),
(175,26,o),
(187,-6,o),
(213,-6,cs)
);
}
);
width = 302;
},
{
layerId = m002;
shapes = (
{
closed = 1;
nodes = (
(241,-6,o),
(253,40,o),
(261,179,cs),
(264,245,o),
(267,452,o),
(267,548,c),
(227,548,l),
(230,464,o),
(239,176,o),
(236,102,cs),
(234,40,o),
(226,9,o),
(212,9,cs),
(198,9,o),
(188,50,o),
(181,139,cs),
(157,432,l),
(194,548,o),
(230,663,o),
(255,750,c),
(212,750,l),
(199,674,o),
(176,554,o),
(154,466,c),
(140,644,ls),
(133,728,o),
(124,756,o),
(92,756,cs),
(48,756,o),
(35,665,o),
(38,453,c),
(72,453,l),
(66,668,o),
(70,741,o),
(96,741,cs),
(112,741,o),
(120,712,o),
(125,644,cs),
(134,531,l),
(87,312,o),
(59,160,o),
(30,0,c),
(78,0,l),
(91,151,o),
(112,324,o),
(138,486,c),
(166,137,ls),
(175,26,o),
(187,-6,o),
(213,-6,cs)
);
}
);
width = 302;
}
);
unicode = 88;
},
{
glyphname = Y;
lastChange = "2022-03-23 15:35:12 +0000";
layers = (
{
layerId = m01;
shapes = (
{
closed = 1;
nodes = (
(128,0,ls),
(203,0,o),
(242,21,o),
(256,104,cs),
(267,172,o),
(261,325,o),
(261,369,c),
(227,369,l),
(227,327,o),
(234,172,o),
(221,87,cs),
(212,32,o),
(190,14,o),
(132,14,cs),
(115,14,l),
(266,750,l),
(223,750,l),
(201,605,o),
(178,460,o),
(153,315,c),
(109,315,o),
(101,331,o),
(94,380,cs),
(84,446,o),
(65,618,o),
(58,750,c),
(15,750,l),
(29,612,o),
(51,450,o),
(63,387,cs),
(76,321,o),
(97,301,o),
(150,301,c),
(133,201,o),
(115,100,o),
(97,0,c)
);
}
);
width = 286;
},
{
layerId = m002;
shapes = (
{
closed = 1;
nodes = (
(128,0,ls),
(203,0,o),
(242,21,o),
(256,104,cs),
(267,172,o),
(261,325,o),
(261,369,c),
(227,369,l),
(227,327,o),
(234,172,o),
(221,87,cs),
(212,32,o),
(190,14,o),
(132,14,cs),
(115,14,l),
(266,750,l),
(223,750,l),
(201,605,o),
(178,460,o),
(153,315,c),
(109,315,o),
(101,331,o),
(94,380,cs),
(84,446,o),
(65,618,o),
(58,750,c),
(15,750,l),
(29,612,o),
(51,450,o),
(63,387,cs),
(76,321,o),
(97,301,o),
(150,301,c),
(133,201,o),
(115,100,o),
(97,0,c)
);
}
);
width = 286;
}
);
unicode = 89;
},
{
glyphname = Z;
lastChange = "2022-03-23 15:35:36 +0000";
layers = (
{
layerId = m01;
shapes = (
{
closed = 1;
nodes = (
(239,-3,o),
(255,50,o),
(261,178,cs),
(264,245,o),
(264,432,o),
(264,498,c),
(224,498,l),
(230,392,o),
(232,179,o),
(227,102,cs),
(222,36,o),
(215,13,o),
(200,13,cs),
(173,13,o),
(160,105,o),
(161,319,c),
(126.347,319,l),
(143,381,l),
(249,750,l),
(177,750,ls),
(85,750,o),
(59,730,o),
(51,664,cs),
(46,621,o),
(45,489,o),
(44,441,c),
(82,441,l),
(81,483,o),
(78,625,o),
(82,671,cs),
(86,720,o),
(97,736,o),
(179,736,cs),
(222,736,l),
(182,582,o),
(141,427,o),
(97,273,cs),
(20,0,l),
(65,0,l),
(76,87,o),
(96,195,o),
(123,305,c),
(146,305,l),
(146,75,o),
(159,-3,o),
(200,-3,cs)
);
}
);
width = 304;
},
{
layerId = m002;
shapes = (
{
closed = 1;
nodes = (
(239,-3,o),
(255,50,o),
(261,178,cs),
(264,245,o),
(264,432,o),
(264,498,c),
(224,498,l),
(230,392,o),
(232,179,o),
(227,102,cs),
(222,36,o),
(215,13,o),
(200,13,cs),
(173,13,o),
(160,105,o),
(161,319,c),
(126.347,319,l),
(143,381,l),
(249,750,l),
(177,750,ls),
(85,750,o),
(59,730,o),
(51,664,cs),
(46,621,o),
(45,489,o),
(44,441,c),
(82,441,l),
(81,483,o),
(78,625,o),
(82,671,cs),
(86,720,o),
(97,736,o),
(179,736,cs),
(222,736,l),
(182,582,o),
(141,427,o),
(97,273,cs),
(20,0,l),
(65,0,l),
(76,87,o),
(96,195,o),
(123,305,c),
(146,305,l),
(146,75,o),
(159,-3,o),
(200,-3,cs)
);
}
);
width = 304;
}
);
unicode = 90;
},
{
glyphname = a;
lastChange = "2022-05-27 15:54:24 +0000";
layers = (
{
layerId = m01;
shapes = (
{
closed = 1;
nodes = (
(123,-6,o),
(140,30,o),
(150,104,cs),
(160,180,o),
(162,255,o),
(170,331,c),
(192,333,l),
(192,290,o),
(190,179,o),
(184,0,c),
(229,0,l),
(223,129,o),
(220,224,o),
(216,350,c),
(156,345,l),
(148,268,o),
(143,190,o),
(137,121,cs),
(128,46,o),
(112,13,o),
(95,13,cs),
(71,13,o),
(60,47,o),
(64,148,cs),
(68,258,ls),
(70,322,o),
(94,352,o),
(165,378,cs),
(209,396,o),
(224,421,o),
(224,474,cs),
(224,555,o),
(196,606,o),
(148,606,cs),
(78,606,o),
(40,544,o),
(40,414,c),
(73,414,l),
(73,519,o),
(98,574,o),
(148,574,cs),
(186,574,o),
(209,538,o),
(209,469,cs),
(209,419,o),
(191,408,o),
(132,386,cs),
(63,361,o),
(38,337,o),
(34,241,cs),
(30,136,ls),
(26,41,o),
(48,-6,o),
(90,-6,cs)
);
}
);
width = 259;
},
{
layerId = m002;
shapes = (
{
closed = 1;
nodes = (
(284,0,o),
(613,0,o),
(641,0,c),
(676,97,o),
(757,333,o),
(778,391,c),
(794,391,l),
(777,292,o),
(743,120,o),
(719,0,c),
(1075,0,l),
(1069,129,o),
(1061,409,o),
(1060,535,c),
(687,470,l),
(679,393,o),
(353,216,o),
(353,216,c),
(353,216,o),
(353,216,o),
(353,216,c),
(353,216,o),
(353,216,o),
(353,216,c),
(353,216,l),
(353,216,o),
(989,509,o),
(1060,535,c),
(1024,554,o),
(972,584,o),
(947,600,c),
(838,600,o),
(277,600,o),
(229,600,cs),
(159,600,o),
(40,600,o),
(23,600,c),
(21,385,l),
(59,388,o),
(188,398,o),
(238,402,cs),
(302,407,o),
(427,416,o),
(445,417,c),
(445,417,o),
(445,402,o),
(445,402,c),
(320,379,o),
(136,347,o),
(18,328,c),
(15,0,l),
(32,0,o),
(112,0,o),
(154,0,cs)
);
}
);
width = 1090;
}
);
unicode = 97;
},
{
glyphname = b;
lastChange = "2022-05-27 15:54:44 +0000";
layers = (
{
layerId = m01;
shapes = (
{
closed = 1;
nodes = (
(242,-6,o),
(261,71,o),
(261,196,cs),
(261,434,ls),
(261,563,o),
(247,606,o),
(199,606,cs),
(167,606,o),
(146,581,o),
(132,545,cs),
(104,476,o),
(88,373,o),
(77,239,c),
(74,365,o),
(73,494,o),
(77,619,cs),
(79,691,o),
(116,714,o),
(178,714,cs),
(197,714,o),
(221,714,o),
(247,711,c),
(250,750,l),
(200,750,ls),
(111,750,o),
(67,720,o),
(62,622,cs),
(53,442,o),
(45,195,o),
(40,0,c),
(83,0,l),
(83,2,o),
(83,3,o),
(82.874,5,cs),
(85,184,o),
(97,326,o),
(115,426,c),
(128,426,l),
(128,329,ls),
(128,78,o),
(139,-6,o),
(194,-6,cs)
);
},
{
closed = 1;
nodes = (
(156,13,o),
(143,92,o),
(143,329,cs),
(143,440,l),
(118,440,l),
(137,537,o),
(163,589,o),
(192,589,cs),
(219,589,o),
(227,563,o),
(227,434,cs),
(227,196,ls),
(227,74,o),
(218,13,o),
(189,13,cs)
);
}
);
width = 306;
},
{
layerId = m002;
shapes = (
{
closed = 1;
nodes = (
(1085,148,o),
(1083,453,o),
(1085,600,c),
(1085,600,l),
(1085,600,o),
(542,600,o),
(542,600,c),
(456,575,o),
(324,540,o),
(232,519,c),
(202,440,o),
(157,331,o),
(120,244,c),
(155,374,o),
(199,523,o),
(233,624,cs),
(233,624,o),
(234,627,o),
(234,627,c),
(253,627,o),
(1060,613,o),
(1086,610,c),
(1091,750,l),
(329,750,l),
(236,711,o),
(124,668,o),
(31,636,c),
(31,486,o),
(25,286,o),
(15,101,c),
(182,0,l),
(182,0,o),
(182,0,o),
(182,0,cs),
(205,0,o),
(221,0,o),
(253,0,c),
(291,0,l),
(328,0,ls),
(580,0,o),
(1034,0,o),
(1089,0,c)
);
},
{
closed = 1;
nodes = (
(838,358,o),
(838,358,o),
(838,358,cs),
(838,358,l),
(838,358,l),
(838,358,o),
(838,358,o),
(838,358,cs),
(838,358,o),
(838,358,o),
(838,358,cs),
(838,358,ls),
(838,358,o),
(838,358,o),
(838,358,cs)
);
}
);
width = 1106;
}
);
unicode = 98;
},
{
glyphname = c;
lastChange = "2022-05-27 15:55:33 +0000";
layers = (
{
layerId = m01;
shapes = (
{
closed = 1;
nodes = (
(178,-6,o),
(200,42,o),
(208,156,cs),
(214,245,o),
(218,322,o),
(219,388,c),
(184,388,l),
(188,294,o),
(188,206,o),
(185,141,cs),
(182,50,o),
(168,13,o),
(128,13,cs),
(84,13,o),
(78,74,o),
(79,196,cs),
(81,481,ls),
(82,553,o),
(91,591,o),
(119,591,cs),
(147,591,o),
(157,533,o),
(155,436,c),
(214,436,l),
(218,600,l),
(186,600,l),
(190,543,o),
(192,491,o),
(192,450,c),
(170,450,l),
(170,565,o),
(157,606,o),
(115,606,cs),
(69,606,o),
(48,560,o),
(47,478,cs),
(45,193,ls),
(44,46,o),
(64,-6,o),
(125,-6,cs)
);
}
);
width = 260;
},
{
layerId = m002;
shapes = (
{
closed = 1;
nodes = (
(297,0,o),
(966,0,o),
(1039,0,c),
(1039,0,o),
(1038,187,o),
(1038,187,c),
(1037,328,l),
(929,346,o),
(716,384,o),
(610,404,c),
(610,405,o),
(610,404,o),
(610,404,c),
(610,404,o),
(610,404,o),
(610,404,c),
(610,419,l),
(610,419,o),
(610,419,o),
(610,419,c),
(610,419,o),
(610,418,o),
(610,419,c),
(1034,385,l),
(1034,600,l),
(921,600,l),
(882,600,o),
(798,600,o),
(742,600,c),
(652,600,l),
(598,600,o),
(614,600,o),
(172,600,c),
(172,600,o),
(19,510,o),
(19,510,c),
(15,110,l),
(15,110,o),
(247,0,o),
(247,0,c)
);
}
);
width = 1054;
}
);
unicode = 99;
},
{
glyphname = d;
lastChange = "2022-05-27 15:55:45 +0000";
layers = (
{
layerId = m01;
shapes = (
{
closed = 1;
nodes = (
(162,-6,o),
(172,78,o),
(179,329,cs),
(185,552,l),
(214,554,l),
(214,384,o),
(208,202,o),
(199,0,c),
(244,0,l),
(239,178,o),
(238,410,o),
(238,570,c),
(170,565,l),
(164,329,ls),
(158,92,o),
(145,13,o),
(112,13,cs),
(83,13,o),
(77,74,o),
(79,196,cs),
(83,481,ls),
(84,538,o),
(103,578,o),
(181,596,cs),
(225,606,o),
(246,628,o),
(246,665,cs),
(246,718,o),
(195,750,o),
(106,750,cs),
(60,750,l),
(58,711,l),
(84,714,o),
(109,714,o),
(128,714,cs),
(190,714,o),
(230,701,o),
(230,660,cs),
(230,633,o),
(213,620,o),
(163,609,cs),
(79,590,o),
(50,557,o),
(49,475,cs),
(48,382,o),
(46,289,o),
(45,196,cs),
(43,71,o),
(55,-6,o),
(107,-6,cs)
);
}
);
width = 276;
},
{
layerId = m002;
shapes = (
{
closed = 1;
nodes = (
(611,0,o),
(642,0,o),
(703,0,cs),
(763,0,l),
(792,0,l),
(825,0,o),
(825,0,o),
(869,0,c),
(1095,110,l),
(1090,288,o),
(1090,417,o),
(1090,577,c),
(788,514,l),
(395,342,ls),
(395,342,o),
(395,342,o),
(395,342,c),
(395,342,o),
(395,342,o),
(395,342,cs),
(395,342,ls),
(395,342,o),
(1090,452,o),
(1090,577,c),
(1090,677,o),
(1092,693,o),
(1094,750,c),
(1008,750,o),
(644,750,o),
(555,750,cs),
(15,750,l),
(19,610,l),
(19,610,o),
(929,630,o),
(929,630,c),
(929,630,o),
(931,603,o),
(931,603,c),
(795,598,o),
(298,598,o),
(160,600,c),
(110,559,o),
(64,521,o),
(16,482,c),
(19,326,o),
(20,166,o),
(17,0,c),
(131,0,o),
(504,0,o),
(556,0,cs)
);
}
);
width = 1110;
}
);
unicode = 100;
},
{
glyphname = e;
lastChange = "2022-05-27 15:56:11 +0000";
layers = (
{
layerId = m01;
shapes = (
{
closed = 1;
nodes = (
(160,-6,o),
(169,78,o),
(174,189,cs),
(178,260,o),
(180,335,o),
(180,416,c),
(208,416,l),
(208,317,o),
(205,150,o),
(195,0,c),
(238,0,l),
(237,92,o),
(236,311,o),
(232,430,c),
(165,430,l),
(165,348,o),
(163,270,o),
(160,201,cs),
(154,84,o),
(143,13,o),
(114,13,cs),
(87,13,o),
(78,48,o),
(79,151,cs),
(83,473,l),
(232,473,l),
(233,515,o),
(225,551,o),
(208,574,cs),
(194,594,o),
(173,605,o),
(145,605,cs),
(80,605,o),
(50,556,o),
(49,450,cs),
(45,149,ls),
(43,33,o),
(60,-6,o),
(110,-6,cs)
);
},
{
closed = 1;
nodes = (
(89,562,o),
(107,590,o),
(144,590,cs),
(163,590,o),
(177,583,o),
(186,567,cs),
(195,551,o),
(199,525,o),
(199,487,c),
(84,487,l)
);
}
);
width = 283;
},
{
layerId = m002;
shapes = (
{
closed = 1;
nodes = (
(307,0,o),
(316,0,o),
(357,0,cs),
(376,0,o),
(404,0,o),
(449,0,c),
(531,0,l),
(575,0,o),
(638,0,o),
(712,0,c),
(1039,0,l),
(1038,92,o),
(1041,179,o),
(1037,298,c),
(398,411,l),
(345,347,o),
(310,300,o),
(310,300,cs),
(310,300,o),
(310,300,o),
(310,300,cs),
(310,300,o),
(310,300,o),
(310,300,cs),
(517,365,l),
(1034,355,l),
(1034,355,o),
(1034,600,o),
(1034,600,c),
(834,600,o),
(199,600,o),
(172,600,c),
(122,570,o),
(71,540,o),
(19,510,c),
(15,110,l),
(91,76,o),
(176,35,o),
(247,0,c)
);
},
{
closed = 1;
nodes = (
(398,411,o),
(404,427,o),
(404,427,cs),
(404,427,o),
(527,427,o),
(527,427,c),
(527,427,o),
(521,389,o),
(521,389,c),
(398,411,l)
);
}
);
width = 1054;
}
);
unicode = 101;
},
{
glyphname = f;
lastChange = "2022-03-28 10:54:30 +0000";
layers = (
{
layerId = m01;
shapes = (
{
closed = 1;
nodes = (
(89,0,l),
(84,174,o),
(81,416,o),
(82,586,c),
(154,586,l),
(155,600,l),
(42,600,l),
(42,635,ls),
(42,708,o),
(58,714,o),
(107,714,cs),
(120,714,o),
(131,713,o),
(145,712,c),
(146,750,l),
(122,750,ls),
(48,750,o),
(27,720,o),
(27,629,cs),
(27,600,l),
(6,600,l),
(5,586,l),
(61,586,l),
(60,419,o),
(52,174,o),
(45,0,c)
);
}
);
width = 145;
},
{
layerId = m002;
shapes = (
{
closed = 1;
nodes = (
(650,0,l),
(643,144,o),
(635,324,o),
(633,454,c),
(658,453,l),
(657,600,l),
(138,600,l),
(133,627,l),
(133,627,o),
(133,627,o),
(133,627,cs),
(133,627,o),
(658,610,o),
(658,610,c),
(663,750,l),
(301,750,l),
(217,716,o),
(107,671,o),
(19,636,c),
(19,597,l),
(19,566,l),
(19,538,l),
(18,281,l),
(18,114,o),
(16,174,o),
(15,0,c)
);
}
);
width = 678;
}
);
unicode = 102;
},
{
glyphname = g;
lastChange = "2022-05-27 15:58:08 +0000";
layers = (
{
layerId = m01;
shapes = (
{
closed = 1;
nodes = (
(186,-152,o),
(239,-113,o),
(239,-20,cs),
(238,535,l),
(170,535,l),
(164,329,ls),
(157,92,o),
(145,13,o),
(112,13,cs),
(83,13,o),
(77,74,o),
(79,196,cs),
(83,412,ls),
(85,542,o),
(108,585,o),
(205,585,cs),
(239,585,l),
(240,600,l),
(198,600,ls),
(89,600,o),
(52,549,o),
(49,395,cs),
(45,196,ls),
(42,71,o),
(55,-6,o),
(107,-6,cs),
(162,-6,o),
(171,78,o),
(179,329,cs),
(185,522,l),
(214,522,l),
(213,389,o),
(204,11,o),
(198,-73,cs),
(195,-117,o),
(187,-126,o),
(151,-126,cs),
(126,-126,o),
(84,-119,o),
(48,-110,c),
(46,-150,l),
(73,-151,o),
(101,-152,o),
(128,-152,cs)
);
}
);
width = 280;
},
{
layerId = m002;
shapes = (
{
closed = 1;
nodes = (
(1044,-150,o),
(1044,-150,o),
(1044,-150,c),
(1034,600,l),
(770,600,l),
(740,472,ls),
(740,472,o),
(740,472,o),
(740,472,cs),
(740,472,o),
(740,472,o),
(740,472,cs),
(740,472,ls),
(740,472,o),
(740,472,o),
(740,472,cs),
(740,472,l),
(840,600,l),
(30,600,l),
(29,452,o),
(28,160,o),
(22,0,c),
(232,0,ls),
(361,0,o),
(656,0,o),
(708,0,c),
(733,114,o),
(775,284,o),
(803,391,c),
(819,391,l),
(819,391,l),
(808,246,o),
(796,98,o),
(782,-36,c),
(782,-36,o),
(782,-36,o),
(782,-36,c),
(617,-33,o),
(176,-20,o),
(20,-13,c),
(15,-150,l),
(15,-150,o),
(1044,-150,o),
(1044,-150,c)
);
}
);
width = 1059;
}
);
unicode = 103;
},
{
glyphname = h;
lastChange = "2022-05-27 15:59:02 +0000";
layers = (
{
layerId = m01;
shapes = (
{
closed = 1;
nodes = (
(83,0,l),
(81,96,o),
(95,408,o),
(148,536,cs),
(163,572,o),
(180,589,o),
(201,589,cs),
(238,589,o),
(243,545,o),
(223,445,cs),
(207,367,o),
(165,174,o),
(123,0,c),
(175,0,ls),
(232,0,o),
(255,20,o),
(262,86,cs),
(267,140,o),
(272,245,o),
(273,330,c),
(238,330,l),
(240,259,o),
(239,154,o),
(235,79,cs),
(232,30,o),
(220,14,o),
(175,14,cs),
(145,14,l),
(185,184,o),
(224,369,o),
(240,444,cs),
(263,554,o),
(253,606,o),
(201,606,cs),
(169,606,o),
(148,581,o),
(134,545,cs),
(107,476,o),
(89,374,o),
(77,241,c),
(74,367,o),
(73,494,o),
(77,619,cs),
(79,691,o),
(116,714,o),
(178,714,cs),
(197,714,o),
(216,713,o),
(228,711,c),
(231,750,l),
(200,750,ls),
(111,750,o),
(67,720,o),
(62,622,cs),
(53,442,o),
(45,195,o),
(40,0,c)
);
}
);
width = 303;
},
{
layerId = m002;
shapes = (
{
closed = 1;
nodes = (
(831,0,l),
(831,0,o),
(757,391,o),
(757,391,c),
(757,391,o),
(773,391,o),
(773,391,c),
(773,391,o),
(773,391,o),
(773,391,c),
(816,268,o),
(865,124,o),
(910,0,c),
(910,0,ls),
(967,0,o),
(949,0,o),
(1074,0,c),
(1072,152,o),
(1069,455,o),
(1069,600,c),
(853,600,l),
(855,529,o),
(1006,154,o),
(1002,79,cs),
(999,30,o),
(927,14,o),
(942,14,cs),
(1020,14,l),
(1028,153,o),
(1054,600,o),
(977,600,cs),
(910,600,o),
(375,600,o),
(323,600,c),
(285,576,o),
(246,554,o),
(203,532,c),
(200,464,o),
(190,376,o),
(183,286,c),
(168,393,o),
(163,522,o),
(161,627,c),
(203,627,o),
(278,626,o),
(323,626,cs),
(371,626,o),
(1008,613,o),
(1070,610,c),
(1075,750,l),
(327,750,l),
(233,710,o),
(129,670,o),
(31,636,c),
(30,466,o),
(23,195,o),
(15,0,c)
);
}
);
width = 1090;
}
);
unicode = 104;
},
{
glyphname = i;
lastChange = "2022-05-27 15:59:48 +0000";
layers = (
{
layerId = m01;
shapes = (
{
closed = 1;
nodes = (
(173,0,l),
(174,14,l),
(150,16,ls),
(113,19,o),
(109,28,o),
(107,89,cs),
(104,197,o),
(104,346,o),
(105,440,cs),
(106,493,o),
(111,519,o),
(133,548,cs),
(140,557,o),
(161,584,o),
(179,600,c),
(23,600,l),
(22,586,l),
(146,586,l),
(136,574,o),
(130,568,o),
(120,555,cs),
(89,516,o),
(84,494,o),
(81,398,cs),
(80,363,o),
(79,227,o),
(75,89,cs),
(73,28,o),
(69,20,o),
(32,16,cs),
(11,14,l),
(10,0,l)
);
},
{
closed = 1;
nodes = (
(131,730,l),
(131,750,l),
(62,750,l),
(62,730,l)
);
}
);
width = 184;
},
{
layerId = m002;
shapes = (
{
closed = 1;
nodes = (
(665,0,l),
(665,71,l),
(620,71,l),
(628,92,o),
(638,112,o),
(649,130,c),
(646,238,o),
(643,506,o),
(644,600,c),
(605,600,o),
(522,600,o),
(484,600,cs),
(463,600,o),
(442,600,o),
(421,600,c),
(26,600,l),
(30,483,l),
(253.853,445.074,l),
(254,439,o),
(254,436,o),
(254,430,c),
(251,430,o),
(247,430,o),
(171,430,cs),
(124,430,o),
(78,430,o),
(31,430,c),
(31,313,o),
(16,68,o),
(16,35,cs),
(16,33,l),
(15,0,l)
);
},
{
closed = 1;
nodes = (
(646,627,l),
(653,750,l),
(16,750,l),
(24,627,l)
);
}
);
width = 680;
}
);
unicode = 105;
},
{
glyphname = j;
lastChange = "2022-05-27 16:00:24 +0000";
layers = (
{
layerId = m01;
shapes = (
{
closed = 1;
nodes = (
(54,-150,o),
(99,-111,o),
(99,-31,cs),
(99,104,o),
(92,367,o),
(93,440,cs),
(94,493,o),
(99,519,o),
(121,548,cs),
(128,557,o),
(149,584,o),
(167,600,c),
(11,600,l),
(10,586,l),
(134,586,l),
(124,574,o),
(118,568,o),
(108,555,cs),
(77,516,o),
(70,494,o),
(69,398,cs),
(68,306,o),
(67,101,o),
(60,-48,cs),
(57,-111,o),
(48,-124,o),
(21,-124,cs),
(3,-124,o),
(-18,-120,o),
(-38,-115,c),
(-40,-150,l)
);
},
{
closed = 1;
nodes = (
(120,730,l),
(120,750,l),
(51,750,l),
(51,730,l)
);
}
);
width = 157;
},
{
layerId = m002;
shapes = (
{
closed = 1;
nodes = (
(-17,-150,o),
(129,-150,o),
(386,-150,cs),
(415,-150,o),
(444,-150,o),
(473,-150,c),
(541,-117,o),
(603,-90,o),
(672,-64,c),
(663,86,o),
(657,463,o),
(659,600,c),
(41,600,l),
(45,483,l),
(269,446,l),
(269,440,o),
(269,432,o),
(269,431,c),
(195,431,o),
(120,431,o),
(46,431,c),
(45,338,o),
(38,63,o),
(22,-32,c),
(1,-32,o),
(-16,-31,o),
(-37,-28,c),
(-37,-28,o),
(-37,-28,o),
(-37,-28,cs),
(-55,-150,l)
);
},
{
closed = 1;
nodes = (
(661,627,l),
(668,750,l),
(31,750,l),
(39,627,l)
);
}
);
width = 702;
}
);
unicode = 106;
},
{
glyphname = k;
lastChange = "2022-05-27 16:01:37 +0000";
layers = (
{
layerId = m01;
shapes = (
{
closed = 1;
nodes = (
(83,0,l),
(83,2,o),
(83,3,o),
(82.874,5,cs),
(85,225,o),
(103,390,o),
(129,488,c),
(146.004,488,l),
(146,378,o),
(150,228,o),
(159,124,cs),
(165,45,o),
(180,0,o),
(205,0,cs),
(237,0,o),
(250,46,o),
(257,185,cs),
(260,251,o),
(266,368,o),
(266,434,c),
(231,434,l),
(233,380,o),
(235,182,o),
(232,108,cs),
(230,50,o),
(221,15,o),
(207,15,cs),
(192,15,o),
(179,59,o),
(174,125,cs),
(166,225,o),
(161,374,o),
(161.004,488,c),
(261,488,l),
(261,563,o),
(247,606,o),
(199,606,cs),
(167,606,o),
(146,581,o),
(132,545,cs),
(104,476,o),
(88,373,o),
(77,239,c),
(74,365,o),
(73,494,o),
(77,619,cs),
(79,691,o),
(116,714,o),
(178,714,cs),
(197,714,o),
(221,714,o),
(247,711,c),
(250,750,l),
(200,750,ls),
(111,750,o),
(67,720,o),
(62,622,cs),
(53,442,o),
(45,195,o),
(40,0,c)
);
},
{
closed = 1;
nodes = (
(150,559,o),
(170,589,o),
(192,589,cs),
(217,589,o),
(226,566,o),
(227,502,c),
(133,502,l)
);
}
);
width = 291;
},
{
layerId = m002;
shapes = (
{
closed = 1;
nodes = (
(432,0,l),
(430,12,o),
(428,23,o),
(424,44,cs),
(396,190,o),
(379,273,o),
(357,391,c),
(373,391,l),
(413,279,o),
(469,114,o),
(510,0,c),
(578,0,o),
(1050,0,o),
(1075,0,c),
(1075,8,o),
(1075,16,o),
(1075,31,cs),
(1075,97,o),
(1072,262,o),
(1072,328,c),
(938,352,l),
(938,352,o),
(911,357,o),
(911,357,c),
(833,370,o),
(718,391,o),
(645,405,c),
(645,405,o),
(645,420,o),
(645,420,c),
(781,410,o),
(941,396,o),
(1069,385,c),
(1069,600,l),
(986,600,o),
(371,600,o),
(323,600,c),
(281,574,o),
(246,554,o),
(203,532,c),
(198,456,o),
(191,386,o),
(182,288,c),
(173,404,o),
(164,522,o),
(161,627,c),
(162,627,o),
(163,627,o),
(164,627,cs),
(303,627,o),
(944,614,o),
(1070,610,c),
(1075,750,l),
(329,750,l),
(224,707,o),
(129,671,o),
(31,636,c),
(31,496,o),
(23,195,o),
(15,0,c)
);
},
{
closed = 1;
nodes = (
(330,449,o),
(330,449,o),
(330,449,cs),
(330,449,o),
(330,449,o),
(330,449,c),
(330,449,l)
);
}
);
width = 1090;
}
);
unicode = 107;
},
{
glyphname = l;
lastChange = "2022-05-27 16:04:50 +0000";
layers = (
{
layerId = m01;
shapes = (
{
closed = 1;
nodes = (
(166,0,l),
(167,14,l),
(143,16,ls),
(106,19,o),
(103,28,o),
(101,99,cs),
(96,259,o),
(91,487,o),
(92,633,cs),
(92,699,o),
(108,714,o),
(153,714,cs),
(162,714,o),
(174,713,o),
(182,712,c),
(184,750,l),
(168,750,ls),
(100,750,o),
(79,719,o),
(76,629,cs),
(70,481,o),
(67,263,o),
(62,108,cs),
(59,28,o),
(55,19,o),
(35,16,cs),
(21,14,l),
(21,13,o),
(20,1,o),
(20,0,c)
);
}
);
width = 164;
},
{
layerId = m002;
shapes = (
{
closed = 1;
nodes = (
(709,0,l),
(709,71,l),
(639,69,l),
(654,96,o),
(665,110,o),
(683,130,c),
(677,291,o),
(678,464,o),
(683,630,cs),
(683,631,o),
(683,631,o),
(683,632,c),
(701,632,o),
(724,630,o),
(742,628,c),
(760,750,l),
(232,750,l),
(164,717,o),
(100,690,o),
(31,664,c),
(38,497,o),
(38,232,o),
(32,68,c),
(32,68,o),
(32,68,o),
(32,68,c),
(30,3,l),
(30,2,o),
(30,1,o),
(30,0,c)
);
}
);
width = 745;
}
);
unicode = 108;
},
{
glyphname = m;
lastChange = "2022-05-27 16:06:06 +0000";
layers = (
{
layerId = m01;
shapes = (
{
closed = 1;
nodes = (
(86,0,l),
(86,2,o),
(86,3,o),
(86,5,cs),
(89,268,o),
(112,449,o),
(145,534,cs),
(159,570,o),
(175,589,o),
(196,589,cs),
(233,589,o),
(235,545,o),
(218,445,cs),
(205,367,o),
(169,174,o),
(129,0,c),
(230,0,l),
(285,584,l),
(319,584,ls),
(386,584,o),
(394,539,o),
(367,409,cs),
(358,367,o),
(314,174,o),
(271,0,c),
(326,0,ls),
(383,0,o),
(406,20,o),
(413,86,cs),
(418,140,o),
(423,245,o),
(424,330,c),
(389,330,l),
(391,259,o),
(390,154,o),
(386,79,cs),
(383,30,o),
(371,14,o),
(326,14,cs),
(294,14,l),
(334,184,o),
(375,368,o),
(382,398,cs),
(414,548,o),
(401,600,o),
(319,600,cs),
(271,600,l),
(214,14,l),
(151,14,l),
(189,184,o),
(223,369,o),
(235,444,cs),
(252,554,o),
(248,606,o),
(196,606,cs),
(164,606,o),
(143,578,o),
(130,542,cs),
(108,481,o),
(93,394,o),
(83,284,c),
(82,402,o),
(82,523,o),
(82,600,c),
(21,600,l),
(20,586,l),
(52,586,o),
(61,580,o),
(61,548,cs),
(61,396,o),
(52,177,o),
(43,0,c)
);
}
);
width = 454;
},
{
layerId = m002;
shapes = (
{
closed = 1;
nodes = (
(577,0,l),
(577,2,o),
(577,3,o),
(577,5,cs),
(580,268,o),
(520,332,o),
(520,332,cs),
(520,332,o),
(520,332,o),
(520,332,c),
(520,332,o),
(520,332,o),
(520,332,cs),
(520,332,o),
(560,174,o),
(520,0,c),
(1180,0,l),
(1203,303,l),
(1203,303,ls),
(1203,303,o),
(1203,303,o),
(1203,303,cs),
(1203,303,o),
(1134,174,o),
(1091,0,c),
(1146,0,ls),
(1203,0,o),
(1416,0,o),
(1504,0,c),
(1502,152,o),
(1500,445,o),
(1500,600,c),
(1343,600,l),
(1345,529,o),
(1326,182,o),
(1322,107,cs),
(1319,58,o),
(1101,14,o),
(1146,14,cs),
(1314,14,l),
(1354,184,o),
(1454,600,o),
(1423,600,cs),
(1290,600,o),
(1221,600,o),
(1139,600,cs),
(1053,600,l),
(916,209,l),
(903,209,l),
(929,354,o),
(953,485,o),
(974,600,c),
(882,600,o),
(365,600,o),
(313,600,c),
(275,576,o),
(236,554,o),
(193,532,c),
(190,464,o),
(184,370,o),
(177,280,c),
(162,387,o),
(148,503,o),
(138,600,c),
(111,600,l),
(87,600,l),
(96,600,o),
(24,600,o),
(24,600,c),
(25,448,o),
(23,177,o),
(15,0,c)
);
}
);
width = 1519;
}
);
unicode = 109;
},
{
glyphname = n;
lastChange = "2022-05-27 16:10:09 +0000";
layers = (
{
layerId = m01;
shapes = (
{
closed = 1;
nodes = (
(178,0,ls),
(235,0,o),
(258,20,o),
(265,86,cs),
(270,140,o),
(275,245,o),
(276,330,c),
(241,330,l),
(243,261,o),
(242,155,o),
(238,79,cs),
(235,30,o),
(223,14,o),
(178,14,cs),
(148,14,l),
(188,184,o),
(227,369,o),
(243,444,cs),
(266,554,o),
(256,606,o),
(204,606,cs),
(172,606,o),
(151,581,o),
(137,545,cs),
(112,482,o),
(94,389,o),
(83,271,c),
(82,394,o),
(82,520,o),
(82,600,c),
(21,600,l),
(20,586,l),
(52,586,o),
(61,580,o),
(61,548,cs),
(61,396,o),
(52,177,o),
(43,0,c),
(86,0,l),
(86,2,o),
(86,3,o),
(85.871,5,cs),
(86,273,o),
(116,453,o),
(151,536,cs),
(166,572,o),
(183,589,o),
(204,589,cs),
(241,589,o),
(246,545,o),
(226,445,cs),
(210,367,o),
(168,174,o),
(126,0,c)
);
}
);
width = 307;
},
{
layerId = m002;
shapes = (
{
closed = 1;
nodes = (
(910,0,ls),
(945,0,o),
(967,0,o),
(1074,0,c),
(1072,152,o),
(1069,455,o),
(1069,600,c),
(873,600,l),
(875,529,o),
(1006,155,o),
(1002,79,cs),
(999,30,o),
(938,14,o),
(938,14,c),
(1020,14,l),
(1028,153,o),
(1057,600,o),
(997,600,cs),
(919,600,o),
(365,600,o),
(313,600,c),
(275,576,o),
(236,554,o),
(193,532,c),
(190,464,o),
(184,370,o),
(177,280,c),
(162,387,o),
(148,503,o),
(138,600,c),
(111,600,l),
(87,600,l),
(99,599,o),
(24,600,o),
(24,600,c),
(25,448,o),
(23,177,o),
(15,0,c),
(831,0,l),
(831,0,o),
(831,0,o),
(831,0,cs),
(831,0,o),
(757,391,o),
(757,391,c),
(757,391,o),
(773,391,o),
(773,391,c),
(773,391,o),
(773,391,o),
(773,391,c),
(773,391,o),
(865,124,o),
(910,0,c)
);
}
);
width = 1089;
}
);
unicode = 110;
},
{
glyphname = o;
lastChange = "2022-05-27 16:10:29 +0000";
layers = (
{
layerId = m01;
shapes = (
{
closed = 1;
nodes = (
(213,-6,o),
(231,74,o),
(231,210,cs),
(231,600,l),
(197,600,l),
(182,600,ls),
(75,600,o),
(40,535,o),
(40,403,cs),
(40,375,l),
(40,210,ls),
(40,74,o),
(57,-6,o),
(135,-6,cs)
);
},
{
closed = 1;
nodes = (
(74,434,ls),
(74,548,o),
(98,585,o),
(183,585,cs),
(197,585,l),
(197,189,ls),
(197,74,o),
(193,9,o),
(135,9,cs),
(77,9,o),
(74,74,o),
(74,189,cs)
);
}
);
width = 271;
},
{
background = {
shapes = (
{
closed = 1;
nodes = (
(808,0,o),
(1039,109,o),
(1039,110,c),
(1035,510,l),
(882,600,l),
(798,600,ls),
(723,600,o),
(712,600,o),
(673,600,cs),
(664,600,o),
(612,600,o),
(505,600,cs),
(494,600,ls),
(478,600,o),
(477,600,o),
(383,600,cs),
(289,600,l),
(172,600,l),
(19,510,l),
(19,507,o),
(15,112,o),
(15,110,c),
(247,0,l),
(341,0,o),
(719,0,o),
(807,0,c)
);
}
);
};
layerId = m002;
shapes = (
{
closed = 1;
nodes = (
(807,0,o),
(1039,110,o),
(1039,110,cs),
(1035,510,l),
(882,600,l),
(172,600,ls),
(172,600,o),
(19,510,o),
(19,510,cs),
(15,110,l),
(247,0,l),
(379,0,o),
(729,0,o),
(807,0,cs)
);
},
{
closed = 1;
nodes = (
(758,391,ls),
(758,391,o),
(758,391,o),
(758,391,c),
(758,391,l),
(758,391,ls),
(758,391,o),
(758,391,o),
(758,391,c),
(758,391,o),
(758,391,o),
(758,391,cs)
);
}
);
width = 1054;
}
);
unicode = 111;
},
{
glyphname = p;
lastChange = "2022-05-27 16:10:55 +0000";
layers = (
{
layerId = m01;
shapes = (
{
closed = 1;
nodes = (
(85,-150,l),
(84,-114,o),
(83,-56,o),
(82,12,cs),
(84,187,o),
(96,328,o),
(115,426,c),
(129,426,l),
(129,329,ls),
(129,78,o),
(140,-6,o),
(195,-6,cs),
(243,-6,o),
(262,71,o),
(262,196,cs),
(262,434,ls),
(262,563,o),
(248,606,o),
(200,606,cs),
(168,606,o),
(147,581,o),
(133,545,cs),
(108,483,o),
(91,392,o),
(79,277,c),
(78,420,o),
(77,552,o),
(77,600,c),
(16,600,l),
(15,586,l),
(47,586,o),
(56,580,o),
(56,548,cs),
(56,396,o),
(47,57,o),
(39,-150,c)
);
},
{
closed = 1;
nodes = (
(157,13,o),
(144,92,o),
(144,329,cs),
(144,440,l),
(118,440,l),
(138,537,o),
(164,589,o),
(193,589,cs),
(220,589,o),
(228,563,o),
(228,434,cs),
(228,196,ls),
(228,74,o),
(219,13,o),
(190,13,cs)
);
}
);
width = 307;
},
{
layerId = m002;
shapes = (
{
closed = 1;
nodes = (
(290,-150,l),
(290,-150,o),
(280,0,o),
(280,0,c),
(303,0,o),
(319,0,o),
(339,0,c),
(387,0,l),
(406,0,l),
(569,0,o),
(984,0,o),
(1039,0,c),
(1034,151,o),
(1029,475,o),
(1029,600,cs),
(1029,600,ls),
(1029,600,o),
(537,600,o),
(537,600,c),
(451,575,o),
(319,540,o),
(227,519,c),
(197,440,o),
(152,331,o),
(115,244,c),
(150,374,o),
(190,508,o),
(220,600,c),
(172,600,l),
(167,600,l),
(167,600,o),
(98,600,o),
(30,600,c),
(29,398,o),
(21,57,o),
(15,-150,c)
);
},
{
closed = 1;
nodes = (
(838,358,o),
(838,358,o),
(838,358,cs),
(838,358,l),
(838,358,l),
(838,358,o),
(838,358,o),
(838,358,cs),
(838,358,o),
(838,358,o),
(838,358,cs),
(838,358,ls),
(838,358,o),
(838,358,o),
(838,358,cs)
);
}
);
width = 1057;
}
);
unicode = 112;
},
{
glyphname = q;
lastChange = "2022-05-27 16:11:16 +0000";
layers = (
{
layerId = m01;
shapes = (
{
closed = 1;
nodes = (
(244,-150,l),
(242,27,o),
(238,455,o),
(238,535,c),
(170,535,l),
(164,329,ls),
(157,92,o),
(145,13,o),
(112,13,cs),
(83,13,o),
(77,74,o),
(79,196,cs),
(83,412,ls),
(85,542,o),
(108,585,o),
(205,585,cs),
(239,585,l),
(240,600,l),
(198,600,ls),
(89,600,o),
(52,549,o),
(49,395,cs),
(45,196,ls),
(42,71,o),
(55,-6,o),
(107,-6,cs),
(162,-6,o),
(171,78,o),
(179,329,cs),
(185,522,l),
(214,522,l),
(214,377,o),
(206,22,o),
(199,-150,c)
);
}
);
width = 284;
},
{
layerId = m002;
shapes = (
{
closed = 1;
nodes = (
(1041,-150,l),
(1036,27,o),
(1030,430,o),
(1031,600,c),
(770,600,l),
(740,472,ls),
(740,472,o),
(740,472,o),
(740,472,cs),
(740,472,o),
(740,472,o),
(740,472,cs),
(740,472,ls),
(740,472,o),
(740,472,o),
(740,472,cs),
(740,472,l),
(840,600,l),
(27,600,l),
(26,452,o),
(21,160,o),
(15,0,c),
(232,0,ls),
(361,0,o),
(656,0,o),
(708,0,c),
(733,114,o),
(772,284,o),
(800,391,c),
(816,391,l),
(816,391,l),
(805,246,o),
(783,3,o),
(766,-150,c)
);
}
);
width = 1056;
}
);
unicode = 113;
},
{
glyphname = r;
lastChange = "2022-05-27 16:11:37 +0000";
layers = (
{
layerId = m01;
shapes = (
{
closed = 1;
nodes = (
(97,0,l),
(97,5,ls),
(93,268,o),
(107,449,o),
(135,534,cs),
(147,571,o),
(161,590,o),
(175,590,cs),
(199,590,o),
(210,553,o),
(200,445,c),
(239,445,l),
(239,550,o),
(220,606,o),
(178,606,cs),
(151,606,o),
(134,583,o),
(121,542,cs),
(104,488,o),
(94,414,o),
(87,321,c),
(84,427,o),
(82,531,o),
(82,600,c),
(21,600,l),
(20,586,l),
(52,586,o),
(61,580,o),
(61,548,cs),
(61,396,o),
(59,177,o),
(53,0,c)
);
}
);
width = 239;
},
{
layerId = m002;
shapes = (
{
closed = 1;
nodes = (
(531,0,l),
(531,1,ls),
(531,8,o),
(529,46,o),
(529,48,c),
(549,48,o),
(576,48,o),
(590,48,cs),
(616,48,o),
(935,48,o),
(1026,48,c),
(1069,600,l),
(978,600,o),
(355,600,o),
(313,600,c),
(271,575,o),
(235,554,o),
(193,532,c),
(190,478,o),
(183,374,o),
(176,281,c),
(163,387,o),
(145,531,o),
(138,600,c),
(24,600,l),
(24,600,l),
(24,591,o),
(24,586,o),
(24,570,cs),
(24,418,o),
(20,197,o),
(15,0,c)
);
}
);
width = 1084;
}
);
unicode = 114;
},
{
glyphname = s;
lastChange = "2022-03-23 15:08:18 +0000";
layers = (
{
layerId = m01;
shapes = (
{
closed = 1;
nodes = (
(199,-6,o),
(222,41,o),
(221,153,cs),
(220,209,ls),
(219,337,o),
(192,361,o),
(130,385,cs),
(68,408,o),
(56,419,o),
(56,469,cs),
(56,538,o),
(89,574,o),
(120,574,cs),
(165,574,o),
(184,531,o),
(184,414,c),
(217,414,l),
(217,552,o),
(189,606,o),
(129,606,cs),
(78,606,o),
(41,555,o),
(41,474,cs),
(41,421,o),
(50,396,o),
(97,377,cs),
(161,352,o),
(185,322,o),
(186,231,cs),
(187,166,ls),
(188,47,o),
(176,13,o),
(152,13,cs),
(135,13,o),
(119,46,o),
(110,121,cs),
(102,190,o),
(100,268,o),
(97,345,c),
(65,347.857,l),
(41,350,l),
(37,231,o),
(35,92,o),
(30,0,c),
(73,0,l),
(65,178,o),
(65,290,o),
(65,333,c),
(83,331,l),
(86,255,o),
(87,180,o),
(97,104,cs),
(107,30,o),
(124,-6,o),
(157,-6,cs)
);
}
);
width = 261;
},
{
layerId = m002;
shapes = (
{
closed = 1;
nodes = (
(932,30,o),
(992,66,o),
(1037,90,c),
(1035,284,l),
(903,302,o),
(516,364,o),
(516,364,c),
(516,364,o),
(516,364,o),
(516,364,c),
(516,364,o),
(516,379,o),
(516,379,c),
(516,379,o),
(516,379,o),
(516,379,c),
(1032,324,l),
(1031,432,o),
(1031,511,o),
(1030,600,c),
(979,600,o),
(230,600,o),
(175,600,c),
(129,571,o),
(72,536,o),
(22,508,c),
(22,508,o),
(21,364,o),
(21,364,c),
(575,248,l),
(575,248,o),
(575,233,o),
(575,233,c),
(575,233,o),
(575,233,o),
(575,233,cs),
(464,250,o),
(135,305,o),
(17,326,c),
(17,326,l),
(17,326,l),
(18,227,o),
(17,112,o),
(15,0,c),
(81,0,l),
(118,0,o),
(141,0,o),
(141,0,c),
(160,0,l),
(200,0,o),
(284,0,o),
(357,0,c),
(428,0,o),
(848,0,o),
(881,0,c)
);
}
);
width = 1052;
}
);
unicode = 115;
},
{
glyphname = t;
lastChange = "2022-05-27 16:12:09 +0000";
layers = (
{
layerId = m01;
shapes = (
{
closed = 1;
nodes = (
(193,-6,o),
(204,78,o),
(212,329,cs),
(214,395,o),
(215,462,o),
(215,528,c),
(180,528,l),
(182,474,o),
(187,326,o),
(187,252,cs),
(187,75,o),
(173,13,o),
(130,13,cs),
(92,13,o),
(82,47,o),
(81,142,cs),
(79,279,o),
(78,432,o),
(77,586,c),
(218,586,l),
(219,600,l),
(77.062,600,l),
(77,655,l),
(54,655,l),
(52,600,l),
(16,600,l),
(15,586,l),
(52,586,l),
(47,406,o),
(41,149,o),
(41,134,cs),
(41,34,o),
(62,-6,o),
(122,-6,cs)
);
}
);
width = 244;
},
{
layerId = m002;
shapes = (
{
closed = 1;
nodes = (
(15,0,o),
(650,0,o),
(650,0,c),
(648,121,o),
(646,299,o),
(647,407,c),
(547,425,l),
(547,425,o),
(547,425,o),
(547,425,c),
(547,425,o),
(547,453,o),
(547,453,c),
(547,453,o),
(547,453,o),
(547,453,c),
(547,453,o),
(547,453,o),
(547,453,c),
(646,453,l),
(647,600,l),
(574,600,l),
(576,655,l),
(472,655,l),
(21,600,l),
(21,600,l),
(21,600,l),
(21,488,l),
(21,308,o),
(18,125,o),
(15,0,cs),
(15,0,o),
(15,0,o),
(15,0,c)
);
}
);
width = 665;
}
);
unicode = 116;
},
{
glyphname = u;
lastChange = "2022-05-27 16:12:20 +0000";
layers = (
{
layerId = m01;
shapes = (
{
closed = 1;
nodes = (
(141,-6,o),
(160,15,o),
(179,83,cs),
(193,130,o),
(212,236,o),
(229,378,c),
(226,230,o),
(221,64,o),
(218,0,c),
(261,0,l),
(257,103,o),
(257,531,o),
(257,600,c),
(233,600,l),
(216,327,o),
(180,147,o),
(162,86,cs),
(147,33,o),
(132,11,o),
(109,11,cs),
(90,11,o),
(79,29,o),
(79,74,cs),
(79,155,o),
(129,426,o),
(174,600,c),
(128,600,ls),
(71,600,o),
(48,580,o),
(41,514,cs),
(36,460,o),
(31,355,o),
(30,270,c),
(65,270,l),
(63,339,o),
(64,445,o),
(68,521,cs),
(71,570,o),
(83,586,o),
(128,586,cs),
(151,586,l),
(108,412,o),
(62,154,o),
(62,73,cs),
(62,22,o),
(76,-6,o),
(109,-6,cs)
);
}
);
width = 301;
},
{
layerId = m002;
shapes = (
{
closed = 1;
nodes = (
(808,20,o),
(858,49,o),
(896,68,c),
(899,144,o),
(905,218,o),
(913,319,c),
(926,231,o),
(938,124,o),
(951,0,c),
(1065,0,l),
(1063,183,o),
(1061,429,o),
(1060,600,c),
(358,600,l),
(358,600,o),
(429,209,o),
(429,209,cs),
(429,209,o),
(429,209,o),
(416,209,cs),
(416,209,o),
(416,209,o),
(416,209,cs),
(416,209,o),
(279,600,o),
(279,600,c),
(15,600,ls),
(15,600,o),
(15,600,o),
(15,600,c),
(18,456,o),
(21,155,o),
(20,0,c),
(194,0,l),
(192,69,o),
(140,302,o),
(144,378,cs),
(147,427,o),
(196,512,o),
(147,512,cs),
(120,512,l),
(77,338,o),
(87,127,o),
(74,0,c),
(120,0,o),
(776,0,o),
(776,0,c)
);
}
);
width = 1080;
}
);
unicode = 117;
},
{
glyphname = v;
lastChange = "2022-05-27 16:13:16 +0000";
layers = (
{
layerId = m01;
shapes = (
{
closed = 1;
nodes = (
(116,0,ls),
(154,0,o),
(174,23,o),
(187,86,cs),
(199,140,o),
(235,500,o),
(244,600,c),
(200,600,l),
(197,516,o),
(182,195,o),
(172,119,cs),
(163,42,o),
(149,14,o),
(116,14,cs),
(108,14,l),
(64,600,l),
(20,600,l),
(85,0,l)
);
}
);
width = 264;
},
{
layerId = m002;
shapes = (
{
closed = 1;
nodes = (
(152,0,l),
(215,0,o),
(850,0,o),
(912,0,c),
(912,0,o),
(1044,210,o),
(1044,210,c),
(1049,600,l),
(996,600,o),
(775,600,o),
(693,600,c),
(693,600,o),
(650,209,o),
(650,209,c),
(634,209,l),
(614,600,l),
(15,600,l),
(20,210,l)
);
}
);
width = 1064;
}
);
unicode = 118;
},
{
glyphname = w;
lastChange = "2022-05-27 16:13:05 +0000";
layers = (
{
layerId = m01;
shapes = (
{
closed = 1;
nodes = (
(233,0,ls),
(271,0,o),
(291,23,o),
(304,86,cs),
(316,140,o),
(352,500,o),
(361,600,c),
(317,600,l),
(314,516,o),
(299,195,o),
(289,119,cs),
(280,42,o),
(266,14,o),
(233,14,cs),
(218,14,l),
(239,600,l),
(212,600,ls),
(162,600,o),
(142,575,o),
(144,513,cs),
(161,14,l),
(108,14,l),
(64,600,l),
(20,600,l),
(85,0,l),
(177,0,l),
(160,508,ls),
(158,564,o),
(170,585,o),
(212,585,cs),
(222,585,l),
(202,0,l)
);
}
);
width = 381;
},
{
layerId = m002;
shapes = (
{
closed = 1;
nodes = (
(1372,0,l),
(1372,0,o),
(1504,210,o),
(1504,210,c),
(1504,210,o),
(1509,600,o),
(1509,600,c),
(1153,600,l),
(1153,600,o),
(1110,209,o),
(1110,209,c),
(1109,209,o),
(1106,209,o),
(1105,209,cs),
(1094,209,l),
(1074,600,l),
(903,600,l),
(903,600,o),
(782,209,o),
(782,209,c),
(766,209,l),
(824,600,l),
(15,600,l),
(20,210,l),
(152,0,l),
(1015,0,l),
(1000,474,l),
(1000,474,o),
(1052,551,o),
(1052,551,c),
(960,585,l),
(940,0,l)
);
}
);
width = 1524;
}
);
unicode = 119;
},
{
glyphname = x;
lastChange = "2022-03-23 15:07:28 +0000";
layers = (
{
layerId = m01;
shapes = (
{
closed = 1;
nodes = (
(221,-6,o),
(233,40,o),
(240,179,cs),
(243,245,o),
(249,368,o),
(249,464,c),
(212,464,l),
(216,380,o),
(218,176,o),
(215,102,cs),
(213,44,o),
(207,9,o),
(192,9,cs),
(175,9,o),
(169,42,o),
(162,122,cs),
(144,334,l),
(171,439,o),
(196,512,o),
(226,600,c),
(189,600,l),
(173,524,o),
(154,445,o),
(141,369,c),
(131,494,ls),
(128,532,o),
(124,559,o),
(118,576,cs),
(111,598,o),
(100,606,o),
(85,606,cs),
(48,606,o),
(24,535,o),
(24,414,c),
(57,414,l),
(53,519,o),
(64,591,o),
(85,591,cs),
(102,591,o),
(111,559,o),
(116,494,cs),
(119,453,l),
(89,302,o),
(55,149,o),
(20,0,c),
(63,0,l),
(81,132,o),
(105,267,o),
(123,405,c),
(147,120,ls),
(155,26,o),
(163,-6,o),
(193,-6,cs)
);
}
);
width = 279;
},
{
layerId = m002;
shapes = (
{
closed = 1;
nodes = (
(664,0,o),
(1014,0,o),
(1083,0,c),
(1079,102,o),
(1080,208,o),
(1080,304,c),
(893,304,l),
(893,304,o),
(852,304,o),
(823,304,cs),
(807,304,o),
(777,304,o),
(777,304,cs),
(777,304,o),
(777,319,o),
(777,319,cs),
(777,319,l),
(777,319,o),
(1070,361,o),
(1070,361,c),
(1074,600,l),
(950,600,o),
(808,600,o),
(621,600,c),
(645,444,ls),
(645,444,o),
(629,444,o),
(629,444,cs),
(629,444,o),
(554,600,o),
(554,600,c),
(517,600,o),
(179,600,o),
(23,600,c),
(24,396,l),
(139,396,o),
(303,396,o),
(352,396,c),
(352,396,o),
(352,381,o),
(352,381,cs),
(21,339,l),
(22,245,o),
(20,102,o),
(15,0,c),
(532,0,l),
(532,0,o),
(509,248,o),
(509,248,c),
(525,248,l),
(525,248,o),
(600,0,o),
(600,0,c)
);
}
);
width = 1098;
}
);
unicode = 120;
},
{
glyphname = y;
lastChange = "2022-05-27 16:14:06 +0000";
layers = (
{
layerId = m01;
shapes = (
{
closed = 1;
nodes = (
(205,-152,o),
(258,-113,o),
(258,-20,cs),
(257,600,l),
(233,600,l),
(216,327,o),
(180,147,o),
(162,86,cs),
(147,33,o),
(132,11,o),
(109,11,cs),
(90,11,o),
(79,29,o),
(79,74,cs),
(79,155,o),
(129,426,o),
(174,600,c),
(128,600,ls),
(71,600,o),
(48,580,o),
(41,514,cs),
(36,460,o),
(31,355,o),
(30,270,c),
(65,270,l),
(63,339,o),
(64,445,o),
(68,521,cs),
(71,570,o),
(83,586,o),
(128,586,cs),
(151,586,l),
(108,412,o),
(62,154,o),
(62,73,cs),
(62,22,o),
(76,-6,o),
(109,-6,cs),
(141,-6,o),
(160,15,o),
(179,83,cs),
(186,107,o),
(194,147,o),
(203,200,cs),
(212,251,o),
(222,315,o),
(231,388,c),
(227,199,o),
(221,-11,o),
(217,-73,cs),
(214,-117,o),
(206,-126,o),
(170,-126,cs),
(145,-126,o),
(103,-119,o),
(67,-110,c),
(65,-150,l),
(92,-151,o),
(120,-152,o),
(147,-152,cs)
);
}
);
width = 298;
},
{
layerId = m002;
shapes = (
{
closed = 1;
nodes = (
(1044,-150,o),
(1044,-150,o),
(1044,-150,cs),
(1034,600,l),
(317,600,l),
(317,600,o),
(388,209,o),
(388,209,cs),
(388,209,o),
(375,209,o),
(375,209,cs),
(375,209,o),
(375,209,o),
(375,209,cs),
(375,209,o),
(238,600,o),
(238,600,c),
(30,600,ls),
(30,600,o),
(30,600,o),
(30,600,c),
(31,456,o),
(27,155,o),
(22,0,c),
(194,0,l),
(192,69,o),
(140,302,o),
(144,378,cs),
(147,427,o),
(196,512,o),
(147,512,cs),
(120,512,l),
(77,338,o),
(87,127,o),
(74,0,c),
(120,0,o),
(708,0,o),
(708,0,c),
(708,0,o),
(708,0,o),
(708,0,c),
(724,65,o),
(786,323,o),
(803,391,c),
(803,391,o),
(819,391,o),
(819,391,c),
(811,277,o),
(796,99,o),
(782,-36,c),
(782,-36,o),
(782,-36,o),
(782,-36,c),
(607,-34,o),
(195,-21,o),
(20,-13,c),
(15,-150,l),
(15,-150,o),
(1044,-150,o),
(1044,-150,cs)
);
}
);
width = 1059;
}
);
unicode = 121;
},
{
glyphname = z;
lastChange = "2022-03-23 15:20:52 +0000";
layers = (
{
background = {
shapes = (
{
closed = 1;
nodes = (
(65,0,l),
(77,87,o),
(94,187,o),
(116,265,c),
(137.009,265,l),
(137,220,o),
(138,126,o),
(144,57,cs),
(148,14,o),
(159,-6,o),
(182,-6,cs),
(214,-6,o),
(227,40,o),
(234,179,cs),
(237,245,o),
(243,368,o),
(243,434,c),
(205,434,l),
(207,380,o),
(212,176,o),
(209,102,cs),
(207,40,o),
(198,9,o),
(182,9,cs),
(169,9,o),
(162,27,o),
(159,59,cs),
(152,131,o),
(152,243,o),
(152,279,c),
(120.261,279,l),
(124,291,l),
(223,600,l),
(173,600,ls),
(77,600,o),
(55,580,o),
(47,514,cs),
(40,460,o),
(37,415,o),
(36,335,c),
(74,335,l),
(72,405,o),
(70,464,o),
(74,521,cs),
(78,570,o),
(89,586,o),
(165,586,cs),
(202,586,l),
(15,0,l)
);
}
);
};
layerId = m01;
shapes = (
{
closed = 1;
nodes = (
(65,0,l),
(77,87,o),
(94,187,o),
(116,265,c),
(137.009,265,l),
(137,220,o),
(138,126,o),
(144,57,cs),
(148,14,o),
(159,-6,o),
(182,-6,cs),
(214,-6,o),
(227,40,o),
(234,179,cs),
(237,245,o),
(243,368,o),
(243,434,c),
(205,434,l),
(207,380,o),
(212,176,o),
(209,102,cs),
(207,40,o),
(198,9,o),
(182,9,cs),
(169,9,o),
(162,27,o),
(159,59,cs),
(152,131,o),
(152,243,o),
(152,279,c),
(120.261,279,l),
(214,572,l),
(223,600,l),
(173,600,ls),
(77,600,o),
(55,580,o),
(47,514,cs),
(40,460,o),
(37,415,o),
(36,335,c),
(74,335,l),
(72,405,o),
(70,464,o),
(74,521,cs),
(78,570,o),
(89,586,o),
(165,586,cs),
(202,586,l),
(15,0,l)
);
}
);
width = 263;
},
{
layerId = m002;
shapes = (
{
closed = 1;
nodes = (
(15,0,l),
(74,0,o),
(162,0,o),
(219,0,c),
(269,0,l),
(309,0,o),
(326,0,o),
(377,0,cs),
(420,0,o),
(458,0,o),
(481,0,cs),
(513,0,o),
(896,0,o),
(1036,0,c),
(1034,99,o),
(1032,240,o),
(1032,326,c),
(770,284,l),
(770,284,o),
(476,237,o),
(476,237,c),
(476,237,o),
(476,252,o),
(476,252,c),
(476,252,o),
(476,252,o),
(476,252,c),
(476,252,o),
(476,252,o),
(476,252,c),
(476,252,l),
(1026,364,l),
(1026,600,l),
(472,600,ls),
(376,600,o),
(119,600,o),
(21,600,c),
(21,525,o),
(21,408,o),
(20,324,c),
(20,324,l),
(20,324,o),
(385,360,o),
(424,364,c),
(466,368,o),
(535,375,o),
(535,375,c),
(535,360,l),
(19,284,l)
);
}
);
width = 1051;
}
);
unicode = 122;
},
{
glyphname = zero;
lastChange = "2022-03-23 15:40:39 +0000";
layers = (
{
layerId = m01;
shapes = (
{
closed = 1;
nodes = (
(230,-6,o),
(254,71,o),
(254,241,cs),
(254,540,ls),
(254,682,o),
(226,756,o),
(146,756,cs),
(66,756,o),
(40,682,o),
(40,540,cs),
(40,241,ls),
(40,71,o),
(62,-6,o),
(146,-6,cs)
);
},
{
closed = 1;
nodes = (
(93,9,o),
(75,71,o),
(75,231,cs),
(75,556,ls),
(75,693,o),
(92,741,o),
(146,741,cs),
(200,741,o),
(219,693,o),
(219,556,cs),
(219,231,ls),
(219,71,o),
(199,9,o),
(146,9,cs)
);
}
);
width = 294;
},
{
layerId = m002;
shapes = (
{
closed = 1;
nodes = (
(230,-6,o),
(254,71,o),
(254,241,cs),
(254,540,ls),
(254,682,o),
(226,756,o),
(146,756,cs),
(66,756,o),
(40,682,o),
(40,540,cs),
(40,241,ls),
(40,71,o),
(62,-6,o),
(146,-6,cs)
);
},
{
closed = 1;
nodes = (
(93,9,o),
(75,71,o),
(75,231,cs),
(75,556,ls),
(75,693,o),
(92,741,o),
(146,741,cs),
(200,741,o),
(219,693,o),
(219,556,cs),
(219,231,ls),
(219,71,o),
(199,9,o),
(146,9,cs)
);
}
);
width = 294;
}
);
unicode = 48;
},
{
glyphname = one;
lastChange = "2022-03-23 15:40:29 +0000";
layers = (
{
layerId = m01;
shapes = (
{
closed = 1;
nodes = (
(219,0,l),
(220,14,l),
(149,14,l),
(148,196,o),
(149,559,o),
(151,750,c),
(61,750,l),
(45,674,o),
(33,613,o),
(18,521,c),
(56,521,l),
(62,605,o),
(68,665,o),
(78,736,c),
(121,736,l),
(117,556,o),
(107,192,o),
(101,14,c),
(6,14,l),
(5,0,l)
);
}
);
width = 230;
},
{
layerId = m002;
shapes = (
{
closed = 1;
nodes = (
(219,0,l),
(220,14,l),
(149,14,l),
(148,196,o),
(149,559,o),
(151,750,c),
(61,750,l),
(45,674,o),
(33,613,o),
(18,521,c),
(56,521,l),
(62,605,o),
(68,665,o),
(78,736,c),
(121,736,l),
(117,556,o),
(107,192,o),
(101,14,c),
(6,14,l),
(5,0,l)
);
}
);
width = 230;
}
);
unicode = 49;
},
{
glyphname = two;
lastChange = "2022-03-29 15:39:53 +0000";
layers = (
{
layerId = m01;
shapes = (
{
closed = 1;
nodes = (
(172,0,ls),
(223,0,o),
(239,12,o),
(244,55,cs),
(252,129,o),
(253,261,o),
(254,409,c),
(216,409,l),
(217,267,o),
(220,126,o),
(214,58,cs),
(211,23,o),
(206,14,o),
(177,14,cs),
(51,14,l),
(118,203,o),
(203,504,o),
(219,585,cs),
(240,693,o),
(212,756,o),
(144,756,cs),
(66,756,o),
(41,692,o),
(35,605,cs),
(33,576,o),
(32,556,o),
(32,511,c),
(68,511,l),
(65,556,o),
(64,599,o),
(68,639,cs),
(74,713,o),
(105,741,o),
(146,741,cs),
(201,741,o),
(220,680,o),
(202,586,cs),
(185,502,o),
(77,188,o),
(10,0,c)
);
}
);
width = 289;
},
{
layerId = m002;
shapes = (
{
closed = 1;
nodes = (
(172,0,ls),
(223,0,o),
(239,12,o),
(244,55,cs),
(252,129,o),
(253,261,o),
(254,409,c),
(216,409,l),
(217,267,o),
(220,126,o),
(214,58,cs),
(211,23,o),
(206,14,o),
(177,14,cs),
(51,14,l),
(118,203,o),
(203,504,o),
(219,585,cs),
(240,693,o),
(212,756,o),
(144,756,cs),
(66,756,o),
(41,692,o),
(35,605,cs),
(33,576,o),
(32,556,o),
(32,511,c),
(68,511,l),
(65,556,o),
(64,599,o),
(68,639,cs),
(74,713,o),
(105,741,o),
(146,741,cs),
(201,741,o),
(220,680,o),
(202,586,cs),
(185,502,o),
(77,188,o),
(10,0,c)
);
}
);
width = 284;
}
);
unicode = 50;
},
{
glyphname = three;
lastChange = "2022-03-29 15:24:18 +0000";
layers = (
{
layerId = m01;
shapes = (
{
closed = 1;
nodes = (
(205,-6,o),
(244,60,o),
(244,269,cs),
(244,536,l),
(74,536,l),
(169,621,o),
(221,683,o),
(257,750,c),
(37,750,l),
(36,717,l),
(96,722,o),
(155,726,o),
(226,728,c),
(185,664,o),
(140,615,o),
(51,536,c),
(51,522,l),
(206,522,l),
(206,262,ls),
(206,75,o),
(184,9,o),
(138,9,cs),
(99,9,o),
(76,43,o),
(67,154,cs),
(61,229,o),
(66,351,o),
(70,458,c),
(30,458,l),
(30,390,o),
(32,245,o),
(37,179,cs),
(45,47,o),
(76,-6,o),
(138,-6,cs)
);
}
);
width = 288;
},
{
layerId = m002;
shapes = (
{
closed = 1;
nodes = (
(205,-6,o),
(244,60,o),
(244,269,cs),
(244,536,l),
(74,536,l),
(169,621,o),
(221,683,o),
(257,750,c),
(37,750,l),
(36,717,l),
(96,722,o),
(155,726,o),
(226,728,c),
(185,664,o),
(140,615,o),
(51,536,c),
(51,522,l),
(206,522,l),
(206,262,ls),
(206,75,o),
(184,9,o),
(138,9,cs),
(99,9,o),
(76,43,o),
(67,154,cs),
(61,229,o),
(66,351,o),
(70,458,c),
(30,458,l),
(30,390,o),
(32,245,o),
(37,179,cs),
(45,47,o),
(76,-6,o),
(138,-6,cs)
);
}
);
width = 287;
}
);
unicode = 51;
},
{
glyphname = four;
lastChange = "2022-03-23 15:40:39 +0000";
layers = (
{
layerId = m01;
shapes = (
{
closed = 1;
nodes = (
(267,0,l),
(268,14,l),
(223.004,14,l),
(223,191,l),
(256,191,l),
(257,205,l),
(223,205,l),
(224,389,o),
(226,613,o),
(227,750,c),
(149,750,l),
(110,625,o),
(52,425,o),
(20,281,cs),
(4,210,o),
(27,191,o),
(102,191,cs),
(181,191,l),
(179,123,o),
(177,62,o),
(175,14,c),
(115,14,l),
(114,0,l)
);
},
{
closed = 1;
nodes = (
(59,205,o),
(44,220,o),
(57,288,cs),
(79,405,o),
(128,606,o),
(161,736,c),
(197,736,l),
(194,608,o),
(187,386,o),
(182,205,c),
(118,205,ls)
);
}
);
width = 293;
},
{
layerId = m002;
shapes = (
{
closed = 1;
nodes = (
(267,0,l),
(268,14,l),
(223.004,14,l),
(223,191,l),
(256,191,l),
(257,205,l),
(223,205,l),
(224,389,o),
(226,613,o),
(227,750,c),
(149,750,l),
(110,625,o),
(52,425,o),
(20,281,cs),
(4,210,o),
(27,191,o),
(102,191,cs),
(181,191,l),
(179,123,o),
(177,62,o),
(175,14,c),
(115,14,l),
(114,0,l)
);
},
{
closed = 1;
nodes = (
(59,205,o),
(44,220,o),
(57,288,cs),
(79,405,o),
(128,606,o),
(161,736,c),
(197,736,l),
(194,608,o),
(187,386,o),
(182,205,c),
(118,205,ls)
);
}
);
width = 293;
}
);
unicode = 52;
},
{
glyphname = five;
lastChange = "2022-03-23 15:40:29 +0000";
layers = (
{
layerId = m01;
shapes = (
{
closed = 1;
nodes = (
(205,-6,o),
(244,60,o),
(244,269,cs),
(244,408,ls),
(244,500,o),
(216,536,o),
(121,536,cs),
(51,536,l),
(51,728,l),
(121,725,o),
(179,722,o),
(238,717,c),
(240,750,l),
(36,750,l),
(36,522,l),
(107,522,ls),
(193,522,o),
(206,490,o),
(206,409,cs),
(206,262,ls),
(206,75,o),
(184,9,o),
(138,9,cs),
(99,9,o),
(76,43,o),
(67,154,cs),
(61,229,o),
(66,351,o),
(70,458,c),
(30,458,l),
(30,390,o),
(32,245,o),
(37,179,cs),
(45,47,o),
(76,-6,o),
(138,-6,cs)
);
}
);
width = 274;
},
{
layerId = m002;
shapes = (
{
closed = 1;
nodes = (
(205,-6,o),
(244,60,o),
(244,269,cs),
(244,408,ls),
(244,500,o),
(216,536,o),
(121,536,cs),
(51,536,l),
(51,728,l),
(121,725,o),
(179,722,o),
(238,717,c),
(240,750,l),
(36,750,l),
(36,522,l),
(107,522,ls),
(193,522,o),
(206,490,o),
(206,409,cs),
(206,262,ls),
(206,75,o),
(184,9,o),
(138,9,cs),
(99,9,o),
(76,43,o),
(67,154,cs),
(61,229,o),
(66,351,o),
(70,458,c),
(30,458,l),
(30,390,o),
(32,245,o),
(37,179,cs),
(45,47,o),
(76,-6,o),
(138,-6,cs)
);
}
);
width = 274;
}
);
unicode = 53;
},
{
glyphname = six;
lastChange = "2022-03-23 15:40:39 +0000";
layers = (
{
layerId = m01;
shapes = (
{
closed = 1;
nodes = (
(223,-6,o),
(257,50,o),
(257,195,cs),
(257,258,o),
(238,279,o),
(149,279,cs),
(77,279,l),
(78,516,ls),
(79,675,o),
(100,741,o),
(150,741,cs),
(200,741,o),
(216,685,o),
(219,543,cs),
(221,441,o),
(216,390,o),
(214,332,c),
(255,332,l),
(255,398,o),
(253,479,o),
(250,528,cs),
(241,699,o),
(215,756,o),
(151,756,cs),
(73,756,o),
(46,660,o),
(43,467,cs),
(40,241,ls),
(38,71,o),
(65,-6,o),
(149,-6,cs)
);
},
{
closed = 1;
nodes = (
(96,9,o),
(77,71,o),
(77,213,cs),
(77,265,l),
(139,265,ls),
(213,265,o),
(221,247,o),
(221,182,cs),
(221,55,o),
(198,9,o),
(149,9,cs)
);
}
);
width = 297;
},
{
layerId = m002;
shapes = (
{
closed = 1;
nodes = (
(223,-6,o),
(257,50,o),
(257,195,cs),
(257,258,o),
(238,279,o),
(149,279,cs),
(77,279,l),
(78,516,ls),
(79,675,o),
(100,741,o),
(150,741,cs),
(200,741,o),
(216,685,o),
(219,543,cs),
(221,441,o),
(216,390,o),
(214,332,c),
(255,332,l),
(255,398,o),
(253,479,o),
(250,528,cs),
(241,699,o),
(215,756,o),
(151,756,cs),
(73,756,o),
(46,660,o),
(43,467,cs),
(40,241,ls),
(38,71,o),
(65,-6,o),
(149,-6,cs)
);
},
{
closed = 1;
nodes = (
(96,9,o),
(77,71,o),
(77,213,cs),
(77,265,l),
(139,265,ls),
(213,265,o),
(221,247,o),
(221,182,cs),
(221,55,o),
(198,9,o),
(149,9,cs)
);
}
);
width = 297;
}
);
unicode = 54;
},
{
glyphname = seven;
lastChange = "2022-03-23 15:40:29 +0000";
layers = (
{
layerId = m01;
shapes = (
{
closed = 1;
nodes = (
(115,0,l),
(138,157,o),
(162,315,o),
(188,472,c),
(237,472,l),
(238,486,l),
(190,486,l),
(205,574,o),
(220,662,o),
(236,750,c),
(138,750,ls),
(46,750,o),
(20,730,o),
(12,664,cs),
(7,621,o),
(6,589,o),
(5,541,c),
(43,541,l),
(42,583,o),
(39,625,o),
(43,671,cs),
(47,720,o),
(58,736,o),
(140,736,cs),
(218,736,l),
(167,486,l),
(39,486,l),
(38,472,l),
(164,472,l),
(67,0,l)
);
}
);
width = 248;
},
{
layerId = m002;
shapes = (
{
closed = 1;
nodes = (
(115,0,l),
(138,157,o),
(162,315,o),
(188,472,c),
(237,472,l),
(238,486,l),
(190,486,l),
(205,574,o),
(220,662,o),
(236,750,c),
(138,750,ls),
(46,750,o),
(20,730,o),
(12,664,cs),
(7,621,o),
(6,589,o),
(5,541,c),
(43,541,l),
(42,583,o),
(39,625,o),
(43,671,cs),
(47,720,o),
(58,736,o),
(140,736,cs),
(218,736,l),
(167,486,l),
(39,486,l),
(38,472,l),
(164,472,l),
(67,0,l)
);
}
);
width = 248;
}
);
unicode = 55;
},
{
glyphname = eight;
lastChange = "2022-03-28 13:58:23 +0000";
layers = (
{
layerId = m01;
shapes = (
{
closed = 1;
nodes = (
(167,0,ls),
(244,0,o),
(267,17,o),
(255,73,cs),
(163,491,l),
(222,664,ls),
(245,731,o),
(221,750,o),
(178,750,cs),
(111,750,ls),
(42,750,o),
(27,732,o),
(44,671,cs),
(118,407,l),
(13,101,ls),
(-10,33,o),
(15,0,o),
(82,0,cs)
);
},
{
closed = 1;
nodes = (
(22,14,o),
(6,36,o),
(30,105,cs),
(148,448,l),
(209,67,ls),
(216,26,o),
(208,14,o),
(159,14,cs),
(93,14,ls)
);
},
{
closed = 1;
nodes = (
(81,674,ls),
(70,727,o),
(78,736,o),
(126,736,cs),
(173,736,ls),
(217,736,o),
(226,721,o),
(206,663,cs),
(129,440,l)
);
}
);
width = 279;
},
{
layerId = m002;
shapes = (
{
closed = 1;
nodes = (
(167,0,ls),
(244,0,o),
(267,17,o),
(255,73,cs),
(163,491,l),
(222,664,ls),
(245,731,o),
(221,750,o),
(178,750,cs),
(111,750,ls),
(42,750,o),
(27,732,o),
(44,671,cs),
(118,407,l),
(13,101,ls),
(-10,33,o),
(15,0,o),
(82,0,cs)
);
},
{
closed = 1;
nodes = (
(22,14,o),
(6,36,o),
(30,105,cs),
(148,448,l),
(209,67,ls),
(216,26,o),
(208,14,o),
(159,14,cs),
(93,14,ls)
);
},
{
closed = 1;
nodes = (
(81,674,ls),
(70,727,o),
(78,736,o),
(126,736,cs),
(173,736,ls),
(217,736,o),
(226,721,o),
(206,663,cs),
(129,440,l)
);
}
);
width = 278;
}
);
unicode = 56;
},
{
glyphname = nine;
lastChange = "2022-03-23 15:40:39 +0000";
layers = (
{
layerId = m01;
shapes = (
{
closed = 1;
nodes = (
(224,-7,o),
(255,89,o),
(256,277,cs),
(257,508,ls),
(258,678,o),
(232,755,o),
(148,755,cs),
(74,755,o),
(40,699,o),
(40,554,cs),
(40,491,o),
(53,470,o),
(107,470,cs),
(220,470,l),
(218,220,ls),
(217,74,o),
(197,8,o),
(147,8,cs),
(97,8,o),
(81,64,o),
(78,206,cs),
(76,308,o),
(81,359,o),
(83,417,c),
(42,417,l),
(42,351,o),
(44,270,o),
(47,221,cs),
(56,50,o),
(82,-7,o),
(146,-7,cs)
);
},
{
closed = 1;
nodes = (
(84,484,o),
(76,505,o),
(76,567,cs),
(76,694,o),
(99,740,o),
(148,740,cs),
(201,740,o),
(221,678,o),
(220,536,cs),
(220,484,l),
(127,484,ls)
);
}
);
width = 297;
},
{
layerId = m002;
shapes = (
{
closed = 1;
nodes = (
(224,-7,o),
(255,89,o),
(256,277,cs),
(257,508,ls),
(258,678,o),
(232,755,o),
(148,755,cs),
(74,755,o),
(40,699,o),
(40,554,cs),
(40,491,o),
(53,470,o),
(107,470,cs),
(220,470,l),
(218,220,ls),
(217,74,o),
(197,8,o),
(147,8,cs),
(97,8,o),
(81,64,o),
(78,206,cs),
(76,308,o),
(81,359,o),
(83,417,c),
(42,417,l),
(42,351,o),
(44,270,o),
(47,221,cs),
(56,50,o),
(82,-7,o),
(146,-7,cs)
);
},
{
closed = 1;
nodes = (
(84,484,o),
(76,505,o),
(76,567,cs),
(76,694,o),
(99,740,o),
(148,740,cs),
(201,740,o),
(221,678,o),
(220,536,cs),
(220,484,l),
(127,484,ls)
);
}
);
width = 297;
}
);
unicode = 57;
},
{
glyphname = period;
lastChange = "2022-05-27 16:14:29 +0000";
layers = (
{
layerId = m01;
shapes = (
{
closed = 1;
nodes = (
(60,0,l),
(61,37,l),
(16,37,l),
(15,0,l)
);
}
);
width = 76;
},
{
layerId = m002;
shapes = (
{
closed = 1;
nodes = (
(60,0,l),
(61,37,l),
(16,37,l),
(15,0,l)
);
}
);
width = 76;
}
);
unicode = 46;
},
{
glyphname = comma;
lastChange = "2022-03-23 15:44:17 +0000";
layers = (
{
layerId = m01;
shapes = (
{
closed = 1;
nodes = (
(28,-69,l),
(43,-34,o),
(53,2,o),
(60,37,c),
(26,37,l),
(26,2,o),
(21,-29,o),
(10,-69,c)
);
}
);
width = 75;
},
{
layerId = m002;
shapes = (
{
closed = 1;
nodes = (
(28,-69,l),
(43,-34,o),
(53,2,o),
(60,37,c),
(26,37,l),
(26,2,o),
(21,-29,o),
(10,-69,c)
);
}
);
width = 75;
}
);
unicode = 44;
},
{
glyphname = colon;
lastChange = "2022-03-23 15:44:17 +0000";
layers = (
{
layerId = m01;
shapes = (
{
closed = 1;
nodes = (
(60,470,l),
(61,507,l),
(16,507,l),
(15,470,l)
);
},
{
closed = 1;
nodes = (
(60,0,l),
(61,37,l),
(16,37,l),
(15,0,l)
);
}
);
width = 76;
},
{
layerId = m002;
shapes = (
{
closed = 1;
nodes = (
(60,470,l),
(61,507,l),
(16,507,l),
(15,470,l)
);
},
{
closed = 1;
nodes = (
(60,0,l),
(61,37,l),
(16,37,l),
(15,0,l)
);
}
);
width = 76;
}
);
unicode = 58;
},
{
glyphname = semicolon;
lastChange = "2022-03-23 15:44:17 +0000";
layers = (
{
layerId = m01;
shapes = (
{
closed = 1;
nodes = (
(28,-69,l),
(43,-34,o),
(53,2,o),
(60,37,c),
(26,37,l),
(26,2,o),
(21,-29,o),
(10,-69,c)
);
},
{
closed = 1;
nodes = (
(70,470,l),
(71,507,l),
(26,507,l),
(25,470,l)
);
}
);
width = 76;
},
{
layerId = m002;
shapes = (
{
closed = 1;
nodes = (
(28,-69,l),
(43,-34,o),
(53,2,o),
(60,37,c),
(26,37,l),
(26,2,o),
(21,-29,o),
(10,-69,c)
);
},
{
closed = 1;
nodes = (
(70,470,l),
(71,507,l),
(26,507,l),
(25,470,l)
);
}
);
width = 76;
}
);
unicode = 59;
},
{
glyphname = exclam;
lastChange = "2022-03-23 15:44:17 +0000";
layers = (
{
layerId = m01;
shapes = (
{
closed = 1;
nodes = (
(65,110,l),
(74,750,l),
(31,750,l),
(40,110,l)
);
},
{
closed = 1;
nodes = (
(75,0,l),
(76,37,l),
(31,37,l),
(30,0,l)
);
}
);
width = 106;
},
{
layerId = m002;
shapes = (
{
closed = 1;
nodes = (
(65,110,l),
(74,750,l),
(31,750,l),
(40,110,l)
);
},
{
closed = 1;
nodes = (
(75,0,l),
(76,37,l),
(31,37,l),
(30,0,l)
);
}
);
width = 106;
}
);
unicode = 33;
},
{
glyphname = exclamdown;
lastChange = "2022-03-23 15:44:20 +0000";
layers = (
{
layerId = m01;
shapes = (
{
closed = 1;
nodes = (
(74,-150,l),
(65,490,l),
(40,490,l),
(31,-150,l)
);
},
{
closed = 1;
nodes = (
(76,563,l),
(75,600,l),
(30,600,l),
(31,563,l)
);
}
);
width = 106;
},
{
layerId = m002;
shapes = (
{
closed = 1;
nodes = (
(74,-150,l),
(65,490,l),
(40,490,l),
(31,-150,l)
);
},
{
closed = 1;
nodes = (
(76,563,l),
(75,600,l),
(30,600,l),
(31,563,l)
);
}
);
width = 106;
}
);
unicode = 161;
},
{
glyphname = question;
lastChange = "2022-04-03 13:26:46 +0000";
layers = (
{
layerId = m01;
shapes = (
{
closed = 1;
nodes = (
(113,110,l),
(158,252,o),
(208,442,o),
(220,525,cs),
(245,693,o),
(217,756,o),
(129,756,cs),
(52,756,o),
(29,692,o),
(23,602,cs),
(20,556,o),
(19,506,o),
(20,441,c),
(58,441,l),
(53,506,o),
(51,579,o),
(56,636,cs),
(62,713,o),
(93,741,o),
(131,741,cs),
(206,741,o),
(221,680,o),
(198,526,cs),
(186,442,o),
(123,243,o),
(72,110,c)
);
},
{
closed = 1;
nodes = (
(124,0,l),
(125,37,l),
(80,37,l),
(79,0,l)
);
}
);
width = 239;
},
{
layerId = m002;
shapes = (
{
closed = 1;
nodes = (
(113,110,l),
(158,252,o),
(208,442,o),
(220,525,cs),
(245,693,o),
(217,756,o),
(129,756,cs),
(52,756,o),
(29,692,o),
(23,602,cs),
(20,556,o),
(19,506,o),
(20,441,c),
(58,441,l),
(53,506,o),
(51,579,o),
(56,636,cs),
(62,713,o),
(93,741,o),
(131,741,cs),
(206,741,o),
(221,680,o),
(198,526,cs),
(186,442,o),
(123,243,o),
(72,110,c)
);
},
{
closed = 1;
nodes = (
(124,0,l),
(125,37,l),
(80,37,l),
(79,0,l)
);
}
);
width = 239;
}
);
unicode = 63;
},
{
glyphname = questiondown;
lastChange = "2022-03-23 15:44:17 +0000";
layers = (
{
layerId = m01;
shapes = (
{
closed = 1;
nodes = (
(187,-156,o),
(210,-92,o),
(216,-2,cs),
(219,44,o),
(220,94,o),
(219,159,c),
(181,159,l),
(186,94,o),
(188,21,o),
(183,-36,cs),
(177,-113,o),
(146,-141,o),
(108,-141,cs),
(33,-141,o),
(18,-80,o),
(41,74,cs),
(53,158,o),
(116,357,o),
(167,490,c),
(126,490,l),
(81,348,o),
(31,158,o),
(19,75,cs),
(-6,-93,o),
(22,-156,o),
(110,-156,cs)
);
},
{
closed = 1;
nodes = (
(159,563,l),
(160,600,l),
(115,600,l),
(114,563,l)
);
}
);
width = 239;
},
{
layerId = m002;
shapes = (
{
closed = 1;
nodes = (
(187,-156,o),
(210,-92,o),
(216,-2,cs),
(219,44,o),
(220,94,o),
(219,159,c),
(181,159,l),
(186,94,o),
(188,21,o),
(183,-36,cs),
(177,-113,o),
(146,-141,o),
(108,-141,cs),
(33,-141,o),
(18,-80,o),
(41,74,cs),
(53,158,o),
(116,357,o),
(167,490,c),
(126,490,l),
(81,348,o),
(31,158,o),
(19,75,cs),
(-6,-93,o),
(22,-156,o),
(110,-156,cs)
);
},
{
closed = 1;
nodes = (
(159,563,l),
(160,600,l),
(115,600,l),
(114,563,l)
);
}
);
width = 239;
}
);
unicode = 191;
},
{
glyphname = periodcentered;
lastChange = "2022-03-23 15:44:17 +0000";
layers = (
{
layerId = m01;
shapes = (
{
closed = 1;
nodes = (
(60,333,l),
(61,370,l),
(16,370,l),
(15,333,l)
);
}
);
width = 76;
},
{
layerId = m002;
shapes = (
{
closed = 1;
nodes = (
(60,333,l),
(61,370,l),
(16,370,l),
(15,333,l)
);
}
);
width = 76;
}
);
unicode = 183;
},
{
glyphname = bullet;
lastChange = "2022-03-23 15:44:17 +0000";
layers = (
{
layerId = m01;
shapes = (
{
closed = 1;
nodes = (
(84,326,l),
(86,382,l),
(17,382,l),
(15,326,l)
);
}
);
width = 101;
},
{
layerId = m002;
shapes = (
{
closed = 1;
nodes = (
(84,326,l),
(86,382,l),
(17,382,l),
(15,326,l)
);
}
);
width = 101;
}
);
unicode = 8226;
},
{
glyphname = asterisk;
lastChange = "2022-03-24 14:36:25 +0000";
layers = (
{
layerId = m01;
shapes = (
{
closed = 1;
nodes = (
(171,450,l),
(160,599,l),
(164,601,l),
(198,573,o),
(234,541,o),
(263,515,c),
(292,537,l),
(179,610,l),
(286,672,l),
(279,684,l),
(160,615,l),
(171,750,l),
(136,750,l),
(147,607,l),
(143,605,l),
(109,633,o),
(71,666,o),
(44,691,c),
(15,669,l),
(128,597,l),
(20,534,l),
(27,522,l),
(147,592,l),
(136,450,l)
);
}
);
width = 307;
},
{
layerId = m002;
shapes = (
{
closed = 1;
nodes = (
(171,450,l),
(160,599,l),
(164,601,l),
(198,573,o),
(234,541,o),
(263,515,c),
(292,537,l),
(179,610,l),
(286,672,l),
(279,684,l),
(160,615,l),
(171,750,l),
(136,750,l),
(147,607,l),
(143,605,l),
(109,633,o),
(71,666,o),
(44,691,c),
(15,669,l),
(128,597,l),
(20,534,l),
(27,522,l),
(147,592,l),
(136,450,l)
);
}
);
width = 307;
}
);
unicode = 42;
},
{
glyphname = numbersign;
lastChange = "2022-03-28 11:02:55 +0000";
layers = (
{
layerId = m01;
shapes = (
{
closed = 1;
nodes = (
(92,0,l),
(109.015,249,l),
(179,249,l),
(159,0,l),
(192,0,l),
(209.015,249,l),
(269,249,l),
(271,263,l),
(210,263,l),
(222.75,450,l),
(285,450,l),
(287,464,l),
(224,464,l),
(233,600,l),
(207,600,l),
(196,464,l),
(124,464,l),
(133,600,l),
(107,600,l),
(96,464,l),
(37,464,l),
(36,450,l),
(95,450,l),
(80,263,l),
(21,263,l),
(20,249,l),
(79,249,l),
(59,0,l)
);
},
{
closed = 1;
nodes = (
(123,450,l),
(195,450,l),
(180,263,l),
(110,263,l)
);
}
);
width = 292;
},
{
layerId = m002;
shapes = (
{
closed = 1;
nodes = (
(92,0,l),
(109.015,249,l),
(179,249,l),
(159,0,l),
(192,0,l),
(209.015,249,l),
(269,249,l),
(271,263,l),
(210,263,l),
(222.75,450,l),
(285,450,l),
(287,464,l),
(224,464,l),
(233,600,l),
(207,600,l),
(196,464,l),
(124,464,l),
(133,600,l),
(107,600,l),
(96,464,l),
(37,464,l),
(36,450,l),
(95,450,l),
(80,263,l),
(21,263,l),
(20,249,l),
(79,249,l),
(59,0,l)
);
},
{
closed = 1;
nodes = (
(123,450,l),
(195,450,l),
(180,263,l),
(110,263,l)
);
}
);
width = 292;
}
);
unicode = 35;
},
{
glyphname = slash;
lastChange = "2022-03-23 15:44:17 +0000";
layers = (
{
layerId = m01;
shapes = (
{
closed = 1;
nodes = (
(31,0,l),
(109,750,l),
(88,750,l),
(10,0,l)
);
}
);
width = 129;
},
{
layerId = m002;
shapes = (
{
closed = 1;
nodes = (
(31,0,l),
(109,750,l),
(88,750,l),
(10,0,l)
);
}
);
width = 129;
}
);
unicode = 47;
},
{
glyphname = backslash;
lastChange = "2022-03-23 15:44:17 +0000";
layers = (
{
layerId = m01;
shapes = (
{
closed = 1;
nodes = (
(119,0,l),
(41,750,l),
(20,750,l),
(98,0,l)
);
}
);
width = 129;
},
{
layerId = m002;
shapes = (
{
closed = 1;
nodes = (
(119,0,l),
(41,750,l),
(20,750,l),
(98,0,l)
);
}
);
width = 129;
}
);
unicode = 92;
},
{
glyphname = hyphen;
lastChange = "2022-03-23 15:44:17 +0000";
layers = (
{
layerId = m01;
shapes = (
{
closed = 1;
nodes = (
(149,341,l),
(150,359,l),
(12,359,l),
(10,341,l)
);
}
);
width = 160;
},
{
layerId = m002;
shapes = (
{
closed = 1;
nodes = (
(149,341,l),
(150,359,l),
(12,359,l),
(10,341,l)
);
}
);
width = 160;
}
);
unicode = 45;
},
{
glyphname = endash;
lastChange = "2022-03-23 15:44:17 +0000";
layers = (
{
layerId = m01;
shapes = (
{
closed = 1;
nodes = (
(289,341,l),
(290,359,l),
(12,359,l),
(10,341,l)
);
}
);
width = 300;
},
{
layerId = m002;
shapes = (
{
closed = 1;
nodes = (
(289,341,l),
(290,359,l),
(12,359,l),
(10,341,l)
);
}
);
width = 310;
}
);
unicode = 8211;
},
{
glyphname = emdash;
lastChange = "2022-03-23 15:44:17 +0000";
layers = (
{
layerId = m01;
shapes = (
{
closed = 1;
nodes = (
(569,341,l),
(570,359,l),
(12,359,l),
(10,341,l)
);
}
);
width = 580;
},
{
layerId = m002;
shapes = (
{
closed = 1;
nodes = (
(569,341,l),
(570,359,l),
(12,359,l),
(10,341,l)
);
}
);
width = 580;
}
);
unicode = 8212;
},
{
glyphname = underscore;
lastChange = "2022-03-23 15:44:17 +0000";
layers = (
{
layerId = m01;
shapes = (
{
closed = 1;
nodes = (
(289,-18,l),
(290,0,l),
(12,0,l),
(10,-18,l)
);
}
);
width = 300;
},
{
layerId = m002;
shapes = (
{
closed = 1;
nodes = (
(289,-18,l),
(290,0,l),
(12,0,l),
(10,-18,l)
);
}
);
width = 300;
}
);
unicode = 95;
},
{
glyphname = parenleft;
lastChange = "2022-03-23 15:44:17 +0000";
layers = (
{
layerId = m01;
shapes = (
{
closed = 1;
nodes = (
(168,-135,l),
(88,-135,o),
(65,-87,o),
(65,50,cs),
(65,550,ls),
(65,687,o),
(88,735,o),
(167,735,c),
(168,750,l),
(56,750,o),
(30,676,o),
(30,534,cs),
(30,66,ls),
(30,-76,o),
(56,-150,o),
(167,-150,c)
);
}
);
width = 173;
},
{
layerId = m002;
shapes = (
{
closed = 1;
nodes = (
(168,-135,l),
(88,-135,o),
(65,-87,o),
(65,50,cs),
(65,550,ls),
(65,687,o),
(88,735,o),
(167,735,c),
(168,750,l),
(56,750,o),
(30,676,o),
(30,534,cs),
(30,66,ls),
(30,-76,o),
(56,-150,o),
(167,-150,c)
);
}
);
width = 173;
}
);
unicode = 40;
},
{
glyphname = parenright;
lastChange = "2022-03-23 15:44:17 +0000";
layers = (
{
layerId = m01;
shapes = (
{
closed = 1;
nodes = (
(118,-150,o),
(144,-76,o),
(144,66,cs),
(144,534,ls),
(144,676,o),
(118,750,o),
(6,750,c),
(5,735,l),
(86,735,o),
(109,687,o),
(109,550,cs),
(109,50,ls),
(109,-87,o),
(86,-135,o),
(6,-135,c),
(5,-150,l)
);
}
);
width = 174;
},
{
layerId = m002;
shapes = (
{
closed = 1;
nodes = (
(118,-150,o),
(144,-76,o),
(144,66,cs),
(144,534,ls),
(144,676,o),
(118,750,o),
(6,750,c),
(5,735,l),
(86,735,o),
(109,687,o),
(109,550,cs),
(109,50,ls),
(109,-87,o),
(86,-135,o),
(6,-135,c),
(5,-150,l)
);
}
);
width = 174;
}
);
unicode = 41;
},
{
glyphname = braceleft;
lastChange = "2022-03-23 15:45:44 +0000";
layers = (
{
layerId = m01;
shapes = (
{
closed = 1;
nodes = (
(210,-135,l),
(129,-135,o),
(86,-85,o),
(106,50,cs),
(133,229,ls),
(143,297,o),
(114,316,o),
(45,316,c),
(45,336,l),
(114,336,o),
(147,356,o),
(133,423,cs),
(106,550,ls),
(77,684,o),
(129,735,o),
(209,735,c),
(210,750,l),
(97,750,o),
(37,673,o),
(71,534,cs),
(97,430,ls),
(112,369,o),
(88,350,o),
(51,350,cs),
(30,350,l),
(30,302,l),
(51,302,ls),
(88,302,o),
(107,285,o),
(97,223,cs),
(71,66,ls),
(48,-74,o),
(97,-150,o),
(209,-150,c)
);
}
);
width = 215;
},
{
layerId = m002;
shapes = (
{
closed = 1;
nodes = (
(210,-135,l),
(129,-135,o),
(86,-85,o),
(106,50,cs),
(133,229,ls),
(143,297,o),
(114,316,o),
(45,316,c),
(45,336,l),
(114,336,o),
(147,356,o),
(133,423,cs),
(106,550,ls),
(77,684,o),
(129,735,o),
(209,735,c),
(210,750,l),
(97,750,o),
(37,673,o),
(71,534,cs),
(97,430,ls),
(112,369,o),
(88,350,o),
(51,350,cs),
(30,350,l),
(30,302,l),
(51,302,ls),
(88,302,o),
(107,285,o),
(97,223,cs),
(71,66,ls),
(48,-74,o),
(97,-150,o),
(209,-150,c)
);
}
);
width = 215;
}
);
unicode = 123;
},
{
glyphname = braceright;
lastChange = "2022-03-23 15:45:40 +0000";
layers = (
{
layerId = m01;
shapes = (
{
closed = 1;
nodes = (
(118,-150,o),
(167,-74,o),
(144,66,cs),
(118,223,ls),
(108,285,o),
(127,302,o),
(164,302,cs),
(185,302,l),
(185,350,l),
(164,350,ls),
(127,350,o),
(103,369,o),
(118,430,cs),
(144,534,ls),
(178,673,o),
(118,750,o),
(5,750,c),
(6,735,l),
(86,735,o),
(138,684,o),
(109,550,cs),
(82,423,ls),
(68,356,o),
(101,336,o),
(170,336,c),
(170,316,l),
(101,316,o),
(72,297,o),
(82,229,cs),
(109,50,ls),
(129,-85,o),
(86,-135,o),
(5,-135,c),
(6,-150,l)
);
}
);
width = 215;
},
{
layerId = m002;
shapes = (
{
closed = 1;
nodes = (
(118,-150,o),
(167,-74,o),
(144,66,cs),
(118,223,ls),
(108,285,o),
(127,302,o),
(164,302,cs),
(185,302,l),
(185,350,l),
(164,350,ls),
(127,350,o),
(103,369,o),
(118,430,cs),
(144,534,ls),
(178,673,o),
(118,750,o),
(5,750,c),
(6,735,l),
(86,735,o),
(138,684,o),
(109,550,cs),
(82,423,ls),
(68,356,o),
(101,336,o),
(170,336,c),
(170,316,l),
(101,316,o),
(72,297,o),
(82,229,cs),
(109,50,ls),
(129,-85,o),
(86,-135,o),
(5,-135,c),
(6,-150,l)
);
}
);
width = 215;
}
);
unicode = 125;
},
{
glyphname = bracketleft;
lastChange = "2022-03-23 15:44:17 +0000";
layers = (
{
layerId = m01;
shapes = (
{
closed = 1;
nodes = (
(159,-150,l),
(160,-136,l),
(65,-136,l),
(65,736,l),
(159,736,l),
(160,750,l),
(30,750,l),
(30,-150,l)
);
}
);
width = 165;
},
{
layerId = m002;
shapes = (
{
closed = 1;
nodes = (
(159,-150,l),
(160,-136,l),
(65,-136,l),
(65,736,l),
(159,736,l),
(160,750,l),
(30,750,l),
(30,-150,l)
);
}
);
width = 165;
}
);
unicode = 91;
},
{
glyphname = bracketright;
lastChange = "2022-03-23 15:44:17 +0000";
layers = (
{
layerId = m01;
shapes = (
{
closed = 1;
nodes = (
(135,-150,l),
(135,750,l),
(6,750,l),
(5,736,l),
(100,736,l),
(100,-136,l),
(6,-136,l),
(5,-150,l)
);
}
);
width = 165;
},
{
layerId = m002;
shapes = (
{
closed = 1;
nodes = (
(135,-150,l),
(135,750,l),
(6,750,l),
(5,736,l),
(100,736,l),
(100,-136,l),
(6,-136,l),
(5,-150,l)
);
}
);
width = 165;
}
);
unicode = 93;
},
{
glyphname = quotesinglbase;
lastChange = "2022-03-23 15:44:17 +0000";
layers = (
{
layerId = m01;
shapes = (
{
closed = 1;
nodes = (
(23,-59,l),
(37,-24,o),
(43,2,o),
(50,37,c),
(21,37,l),
(21,3,o),
(19,-21,o),
(10,-59,c)
);
}
);
width = 65;
},
{
layerId = m002;
shapes = (
{
closed = 1;
nodes = (
(23,-59,l),
(37,-24,o),
(43,2,o),
(50,37,c),
(21,37,l),
(21,3,o),
(19,-21,o),
(10,-59,c)
);
}
);
width = 65;
}
);
unicode = 8218;
},
{
glyphname = quotedblbase;
lastChange = "2022-03-23 15:44:17 +0000";
layers = (
{
layerId = m01;
shapes = (
{
closed = 1;
nodes = (
(63,-59,l),
(77,-24,o),
(83,2,o),
(90,37,c),
(61,37,l),
(61,3,o),
(59,-21,o),
(50,-59,c)
);
},
{
closed = 1;
nodes = (
(23,-59,l),
(37,-24,o),
(43,2,o),
(50,37,c),
(21,37,l),
(21,3,o),
(19,-21,o),
(10,-59,c)
);
}
);
width = 105;
},
{
layerId = m002;
shapes = (
{
closed = 1;
nodes = (
(63,-59,l),
(77,-24,o),
(83,2,o),
(90,37,c),
(61,37,l),
(61,3,o),
(59,-21,o),
(50,-59,c)
);
},
{
closed = 1;
nodes = (
(23,-59,l),
(37,-24,o),
(43,2,o),
(50,37,c),
(21,37,l),
(21,3,o),
(19,-21,o),
(10,-59,c)
);
}
);
width = 105;
}
);
unicode = 8222;
},
{
glyphname = quotedblleft;
lastChange = "2022-03-23 15:44:17 +0000";
layers = (
{
layerId = m01;
shapes = (
{
closed = 1;
nodes = (
(88,654,l),
(88,688,o),
(90,712,o),
(99,750,c),
(86,750,l),
(72,715,o),
(66,689,o),
(59,654,c)
);
},
{
closed = 1;
nodes = (
(44,654,l),
(44,688,o),
(46,712,o),
(55,750,c),
(42,750,l),
(28,715,o),
(22,689,o),
(15,654,c)
);
}
);
width = 109;
},
{
layerId = m002;
shapes = (
{
closed = 1;
nodes = (
(88,654,l),
(88,688,o),
(90,712,o),
(99,750,c),
(86,750,l),
(72,715,o),
(66,689,o),
(59,654,c)
);
},
{
closed = 1;
nodes = (
(44,654,l),
(44,688,o),
(46,712,o),
(55,750,c),
(42,750,l),
(28,715,o),
(22,689,o),
(15,654,c)
);
}
);
width = 109;
}
);
unicode = 8220;
},
{
glyphname = quotedblright;
lastChange = "2022-03-23 15:44:17 +0000";
layers = (
{
layerId = m01;
shapes = (
{
closed = 1;
nodes = (
(67,654,l),
(81,689,o),
(87,715,o),
(94,750,c),
(65,750,l),
(65,716,o),
(63,692,o),
(54,654,c)
);
},
{
closed = 1;
nodes = (
(23,654,l),
(37,689,o),
(43,715,o),
(50,750,c),
(21,750,l),
(21,716,o),
(19,692,o),
(10,654,c)
);
}
);
width = 109;
},
{
layerId = m002;
shapes = (
{
closed = 1;
nodes = (
(67,654,l),
(81,689,o),
(87,715,o),
(94,750,c),
(65,750,l),
(65,716,o),
(63,692,o),
(54,654,c)
);
},
{
closed = 1;
nodes = (
(23,654,l),
(37,689,o),
(43,715,o),
(50,750,c),
(21,750,l),
(21,716,o),
(19,692,o),
(10,654,c)
);
}
);
width = 109;
}
);
unicode = 8221;
},
{
glyphname = quoteleft;
lastChange = "2022-03-23 15:44:17 +0000";
layers = (
{
layerId = m01;
shapes = (
{
closed = 1;
nodes = (
(44,654,l),
(44,688,o),
(46,712,o),
(55,750,c),
(42,750,l),
(28,715,o),
(22,689,o),
(15,654,c)
);
}
);
width = 65;
},
{
layerId = m002;
shapes = (
{
closed = 1;
nodes = (
(44,654,l),
(44,688,o),
(46,712,o),
(55,750,c),
(42,750,l),
(28,715,o),
(22,689,o),
(15,654,c)
);
}
);
width = 65;
}
);
unicode = 8216;
},
{
glyphname = quoteright;
lastChange = "2022-03-23 15:44:17 +0000";
layers = (
{
layerId = m01;
shapes = (
{
closed = 1;
nodes = (
(23,654,l),
(37,689,o),
(43,715,o),
(50,750,c),
(21,750,l),
(21,716,o),
(19,692,o),
(10,654,c)
);
}
);
width = 65;
},
{
layerId = m002;
shapes = (
{
closed = 1;
nodes = (
(23,654,l),
(37,689,o),
(43,715,o),
(50,750,c),
(21,750,l),
(21,716,o),
(19,692,o),
(10,654,c)
);
}
);
width = 65;
}
);
unicode = 8217;
},
{
glyphname = quotedbl;
lastChange = "2022-03-24 13:25:08 +0000";
layers = (
{
layerId = m01;
shapes = (
{
closed = 1;
nodes = (
(37,654,l),
(46,750,l),
(15,750,l),
(24,654,l)
);
},
{
closed = 1;
nodes = (
(81,654,l),
(90,750,l),
(59,750,l),
(68,654,l)
);
}
);
width = 105;
},
{
layerId = m002;
shapes = (
{
closed = 1;
nodes = (
(37,654,l),
(46,750,l),
(15,750,l),
(24,654,l)
);
},
{
closed = 1;
nodes = (
(81,654,l),
(90,750,l),
(59,750,l),
(68,654,l)
);
}
);
width = 105;
}
);
unicode = 34;
},
{
glyphname = quotesingle;
lastChange = "2022-03-24 11:04:03 +0000";
layers = (
{
layerId = m01;
shapes = (
{
closed = 1;
nodes = (
(35,654,l),
(44,750,l),
(15,750,l),
(22,654,l)
);
}
);
width = 59;
},
{
layerId = m002;
shapes = (
{
closed = 1;
nodes = (
(35,654,l),
(44,750,l),
(15,750,l),
(22,654,l)
);
}
);
width = 59;
}
);
unicode = 39;
},
{
glyphname = at;
lastChange = "2022-03-23 15:46:01 +0000";
layers = (
{
layerId = m01;
shapes = (
{
closed = 1;
nodes = (
(266,-6,o),
(275,78,o),
(283,329,cs),
(289,522,l),
(318,522,l),
(318,426,o),
(313,261,o),
(309,142,cs),
(306,36,o),
(323,-6,o),
(375,-6,cs),
(439,-6,o),
(448,74,o),
(448,326,cs),
(448,524,ls),
(448,694,o),
(380,756,o),
(262,756,cs),
(125,756,o),
(61,701,o),
(58,487,cs),
(50,0,l),
(76,0,l),
(74,458,ls),
(73,672,o),
(114,742,o),
(262,742,cs),
(373,742,o),
(433,685,o),
(433,524,cs),
(433,326,ls),
(433,92,o),
(422,13,o),
(386,13,cs),
(346,13,o),
(347,74,o),
(346,138,cs),
(343,282,o),
(342,478,o),
(342,535,c),
(274,535,l),
(268,329,ls),
(261,92,o),
(249,13,o),
(216,13,cs),
(187,13,o),
(181,74,o),
(183,196,cs),
(187,412,ls),
(189,542,o),
(212,585,o),
(309,585,cs),
(343,585,l),
(344,600,l),
(302,600,ls),
(193,600,o),
(156,549,o),
(153,395,cs),
(149,196,ls),
(146,71,o),
(159,-6,o),
(211,-6,cs)
);
}
);
width = 498;
},
{
layerId = m002;
shapes = (
{
closed = 1;
nodes = (
(266,-6,o),
(275,78,o),
(283,329,cs),
(289,522,l),
(318,522,l),
(318,426,o),
(313,261,o),
(309,142,cs),
(306,36,o),
(323,-6,o),
(375,-6,cs),
(439,-6,o),
(448,74,o),
(448,326,cs),
(448,524,ls),
(448,694,o),
(380,756,o),
(262,756,cs),
(125,756,o),
(61,701,o),
(58,487,cs),
(50,0,l),
(76,0,l),
(74,458,ls),
(73,672,o),
(114,742,o),
(262,742,cs),
(373,742,o),
(433,685,o),
(433,524,cs),
(433,326,ls),
(433,92,o),
(422,13,o),
(386,13,cs),
(346,13,o),
(347,74,o),
(346,138,cs),
(343,282,o),
(342,478,o),
(342,535,c),
(274,535,l),
(268,329,ls),
(261,92,o),
(249,13,o),
(216,13,cs),
(187,13,o),
(181,74,o),
(183,196,cs),
(187,412,ls),
(189,542,o),
(212,585,o),
(309,585,cs),
(343,585,l),
(344,600,l),
(302,600,ls),
(193,600,o),
(156,549,o),
(153,395,cs),
(149,196,ls),
(146,71,o),
(159,-6,o),
(211,-6,cs)
);
}
);
width = 498;
}
);
unicode = 64;
},
{
glyphname = ampersand;
lastChange = "2022-03-23 15:44:20 +0000";
layers = (
{
layerId = m01;
shapes = (
{
closed = 1;
nodes = (
(155,-6,o),
(189,20,o),
(210,196,c),
(263,0,l),
(309,0,l),
(223,273,l),
(231,371,o),
(240,480,o),
(242,566,c),
(266,566,l),
(267,580,l),
(196,580,l),
(195,566,l),
(227,566,l),
(224,493,o),
(219,402,o),
(211,312,c),
(100,664,ls),
(82,722,o),
(92,737,o),
(177,731,cs),
(205,729,o),
(234,725,o),
(262,721,c),
(264,750,l),
(168,750,ls),
(80,750,o),
(66,726,o),
(83,664,cs),
(138,461,l),
(62,254,o),
(40,172,o),
(40,96,cs),
(40,33,o),
(67,-6,o),
(113,-6,cs)
);
},
{
closed = 1;
nodes = (
(89,9,o),
(73,27,o),
(73,97,cs),
(73,163,o),
(108,320,o),
(146,432,c),
(199,236,l),
(179,23,o),
(142,9,o),
(115,9,cs)
);
}
);
width = 334;
},
{
layerId = m002;
shapes = (
{
closed = 1;
nodes = (
(155,-6,o),
(189,20,o),
(210,196,c),
(263,0,l),
(309,0,l),
(223,273,l),
(231,371,o),
(240,480,o),
(242,566,c),
(266,566,l),
(267,580,l),
(196,580,l),
(195,566,l),
(227,566,l),
(224,493,o),
(219,402,o),
(211,312,c),
(100,664,ls),
(82,722,o),
(92,737,o),
(177,731,cs),
(205,729,o),
(234,725,o),
(262,721,c),
(264,750,l),
(168,750,ls),
(80,750,o),
(66,726,o),
(83,664,cs),
(138,461,l),
(62,254,o),
(40,172,o),
(40,96,cs),
(40,33,o),
(67,-6,o),
(113,-6,cs)
);
},
{
closed = 1;
nodes = (
(89,9,o),
(73,27,o),
(73,97,cs),
(73,163,o),
(108,320,o),
(146,432,c),
(199,236,l),
(179,23,o),
(142,9,o),
(115,9,cs)
);
}
);
width = 334;
}
);
unicode = 38;
},
{
glyphname = paragraph;
lastChange = "2022-03-29 15:41:59 +0000";
layers = (
{
layerId = m01;
shapes = (
{
closed = 1;
nodes = (
(128,0,l),
(128,586,l),
(174,586,l),
(176,394,o),
(175,173,o),
(173,0,c),
(204,0,l),
(202,177,o),
(199,413,o),
(197,600,c),
(5,600,l),
(5,556,ls),
(5,482,o),
(39,437,o),
(103,436,c),
(103,249,o),
(99,129,o),
(97,0,c)
);
}
);
width = 249;
},
{
layerId = m002;
shapes = (
{
closed = 1;
nodes = (
(128,0,l),
(128,586,l),
(174,586,l),
(176,394,o),
(175,173,o),
(173,0,c),
(204,0,l),
(202,177,o),
(199,413,o),
(197,600,c),
(5,600,l),
(5,556,ls),
(5,482,o),
(39,437,o),
(103,436,c),
(103,249,o),
(99,129,o),
(97,0,c)
);
}
);
width = 249;
}
);
unicode = 182;
},
{
glyphname = section;
lastChange = "2022-03-29 17:54:13 +0000";
layers = (
{
layerId = m01;
shapes = (
{
closed = 1;
nodes = (
(195,-7,o),
(231,31,o),
(231,90,cs),
(231,164,o),
(170,259,o),
(128,326,c),
(162,326,ls),
(215,326,o),
(229,361,o),
(201,413,cs),
(170,472,o),
(65,571,o),
(65,665,cs),
(65,708,o),
(80,741,o),
(124,741,cs),
(160,741,o),
(184,713,o),
(190,650,cs),
(194,610,o),
(193,551,o),
(190,506,c),
(228,506,l),
(228,551,o),
(227,587,o),
(225,616,cs),
(219,692,o),
(195,756,o),
(127,756,cs),
(70,756,o),
(40,718,o),
(40,659,cs),
(40,586,o),
(99,507,o),
(141,445,c),
(108,445,ls),
(55,445,o),
(41,410,o),
(69,358,cs),
(100,299,o),
(205,178,o),
(205,84,cs),
(205,41,o),
(185,8,o),
(142,8,cs),
(104,8,o),
(84,36,o),
(78,110,cs),
(74,150,o),
(75,221,o),
(80,266,c),
(42,266,l),
(40,221,o),
(41,173,o),
(43,144,cs),
(49,57,o),
(70,-7,o),
(143,-7,cs)
);
},
{
closed = 1;
nodes = (
(105,364,ls),
(77,414,o),
(80,431,o),
(119,431,cs),
(150.029,431,l),
(165,407,ls),
(193,357,o),
(190,340,o),
(151,340,cs),
(119.486,340,l)
);
}
);
width = 271;
},
{
layerId = m002;
shapes = (
{
closed = 1;
nodes = (
(195,-7,o),
(231,31,o),
(231,90,cs),
(231,164,o),
(170,259,o),
(128,326,c),
(162,326,ls),
(215,326,o),
(229,361,o),
(201,413,cs),
(170,472,o),
(65,571,o),
(65,665,cs),
(65,708,o),
(80,741,o),
(124,741,cs),
(160,741,o),
(184,713,o),
(190,650,cs),
(194,610,o),
(193,551,o),
(190,506,c),
(228,506,l),
(228,551,o),
(227,587,o),
(225,616,cs),
(219,692,o),
(195,756,o),
(127,756,cs),
(70,756,o),
(40,718,o),
(40,659,cs),
(40,586,o),
(99,507,o),
(141,445,c),
(108,445,ls),
(55,445,o),
(41,410,o),
(69,358,cs),
(100,299,o),
(205,178,o),
(205,84,cs),
(205,41,o),
(185,8,o),
(142,8,cs),
(104,8,o),
(84,36,o),
(78,110,cs),
(74,150,o),
(75,221,o),
(80,266,c),
(42,266,l),
(40,221,o),
(41,173,o),
(43,144,cs),
(49,57,o),
(70,-7,o),
(143,-7,cs)
);
},
{
closed = 1;
nodes = (
(105,364,ls),
(77,414,o),
(80,431,o),
(119,431,cs),
(150.029,431,l),
(165,407,ls),
(193,357,o),
(190,340,o),
(151,340,cs),
(119.486,340,l)
);
}
);
width = 271;
}
);
unicode = 167;
},
{
glyphname = bar;
lastChange = "2022-03-23 15:44:17 +0000";
layers = (
{
layerId = m01;
shapes = (
{
closed = 1;
nodes = (
(50,-150,l),
(50,750,l),
(30,750,l),
(30,-150,l)
);
}
);
width = 80;
},
{
layerId = m002;
shapes = (
{
closed = 1;
nodes = (
(50,-150,l),
(50,750,l),
(30,750,l),
(30,-150,l)
);
}
);
width = 80;
}
);
unicode = 124;
},
{
glyphname = brokenbar;
lastChange = "2022-03-24 11:05:19 +0000";
layers = (
{
layerId = m01;
shapes = (
{
closed = 1;
nodes = (
(50,-150,l),
(50,267,l),
(30,267,l),
(30,-150,l)
);
},
{
closed = 1;
nodes = (
(50,367,l),
(50,750,l),
(30,750,l),
(30,367,l)
);
}
);
width = 80;
},
{
layerId = m002;
shapes = (
{
closed = 1;
nodes = (
(50,-150,l),
(50,272,l),
(30,272,l),
(30,-150,l)
);
},
{
closed = 1;
nodes = (
(50,372,l),
(50,750,l),
(30,750,l),
(30,372,l)
);
}
);
width = 80;
}
);
unicode = 166;
},
{
glyphname = dollar;
lastChange = "2022-03-28 14:11:17 +0000";
layers = (
{
layerId = m01;
shapes = (
{
closed = 1;
nodes = (
(147,-38,l),
(147,-6,l),
(204,0,o),
(242,72,o),
(241,189,cs),
(240,269,ls),
(238,376,o),
(218,393,o),
(147,444,c),
(147,740,l),
(184,734,o),
(201,670,o),
(196,488,c),
(234,488,l),
(237,670,o),
(207,749,o),
(147,756,c),
(147,786,l),
(132,786,l),
(132,756,l),
(84,751,o),
(49,700,o),
(47,609,cs),
(47,543,o),
(59,485,o),
(132,430,c),
(132,10,l),
(101,15,o),
(86,56,o),
(80,146,cs),
(75,218,o),
(79,302,o),
(83,392,c),
(42,392,l),
(37,275,o),
(41,216,o),
(47,157,cs),
(56,57,o),
(86,0,o),
(132,-5,c),
(132,-38,l)
);
},
{
closed = 1;
nodes = (
(147,423,l),
(191,385,o),
(201,346,o),
(202,254,cs),
(203,167,ls),
(204,71,o),
(184,16,o),
(147,10,c)
);
},
{
closed = 1;
nodes = (
(91,492,o),
(85,540,o),
(85,603,cs),
(86,695,o),
(103,734,o),
(132,740,c),
(132,454,l)
);
}
);
width = 281;
},
{
layerId = m002;
shapes = (
{
closed = 1;
nodes = (
(147,-38,l),
(147,-6,l),
(204,0,o),
(242,72,o),
(241,189,cs),
(240,269,ls),
(238,376,o),
(218,393,o),
(147,444,c),
(147,740,l),
(184,734,o),
(201,670,o),
(196,488,c),
(234,488,l),
(237,670,o),
(207,749,o),
(147,756,c),
(147,786,l),
(132,786,l),
(132,756,l),
(84,751,o),
(49,700,o),
(47,609,cs),
(47,543,o),
(59,485,o),
(132,430,c),
(132,10,l),
(101,15,o),
(86,56,o),
(80,146,cs),
(75,218,o),
(79,302,o),
(83,392,c),
(42,392,l),
(37,275,o),
(41,216,o),
(47,157,cs),
(56,57,o),
(86,0,o),
(132,-5,c),
(132,-38,l)
);
},
{
closed = 1;
nodes = (
(147,423,l),
(191,385,o),
(201,346,o),
(202,254,cs),
(203,167,ls),
(204,71,o),
(184,16,o),
(147,10,c)
);
},
{
closed = 1;
nodes = (
(91,492,o),
(85,540,o),
(85,603,cs),
(86,695,o),
(103,734,o),
(132,740,c),
(132,454,l)
);
}
);
width = 281;
}
);
unicode = 36;
},
{
glyphname = euro;
lastChange = "2022-03-28 14:00:22 +0000";
layers = (
{
layerId = m01;
shapes = (
{
closed = 1;
nodes = (
(217,-6,o),
(244,56,o),
(255,201,cs),
(258,240,o),
(260,325,o),
(260,351,c),
(220,351,l),
(223,293,o),
(224,231,o),
(222,186,cs),
(218,62,o),
(201,9,o),
(159,9,cs),
(112,9,o),
(94,84,o),
(96,275,cs),
(97,396,l),
(211,396,l),
(212,410,l),
(97,410,l),
(98,468,l),
(211,468,l),
(212,482,l),
(98,482,l),
(99,593,ls),
(100,704,o),
(121,741,o),
(161,741,cs),
(198,741,o),
(213,698,o),
(217,659,cs),
(220,626,o),
(220,577,o),
(218,529,c),
(256,529,l),
(256,575,o),
(253,612,o),
(248,645,cs),
(238,717,o),
(210,756,o),
(162,756,cs),
(90,756,o),
(61,697,o),
(60,520,cs),
(60,482,l),
(21,482,l),
(20,468,l),
(60,468,l),
(59,410,l),
(21,410,l),
(20,396,l),
(59,396,l),
(58,278,ls),
(56,75,o),
(84,-6,o),
(159,-6,cs)
);
}
);
width = 300;
},
{
layerId = m002;
shapes = (
{
closed = 1;
nodes = (
(217,-6,o),
(244,56,o),
(255,201,cs),
(258,240,o),
(260,325,o),
(260,351,c),
(220,351,l),
(223,293,o),
(224,231,o),
(222,186,cs),
(218,62,o),
(201,9,o),
(159,9,cs),
(112,9,o),
(94,84,o),
(96,275,cs),
(97,396,l),
(211,396,l),
(212,410,l),
(97,410,l),
(98,468,l),
(211,468,l),
(212,482,l),
(98,482,l),
(99,593,ls),
(100,704,o),
(121,741,o),
(161,741,cs),
(198,741,o),
(213,698,o),
(217,659,cs),
(220,626,o),
(220,577,o),
(218,529,c),
(256,529,l),
(256,575,o),
(253,612,o),
(248,645,cs),
(238,717,o),
(210,756,o),
(162,756,cs),
(90,756,o),
(61,697,o),
(60,520,cs),
(60,482,l),
(21,482,l),
(20,468,l),
(60,468,l),
(59,410,l),
(21,410,l),
(20,396,l),
(59,396,l),
(58,278,ls),
(56,75,o),
(84,-6,o),
(159,-6,cs)
);
}
);
width = 300;
}
);
unicode = 8364;
},
{
glyphname = sterling;
lastChange = "2022-04-03 13:24:23 +0000";
layers = (
{
layerId = m01;
shapes = (
{
closed = 1;
nodes = (
(213,0,ls),
(270,0,o),
(290,18,o),
(294,71,cs),
(298,129,o),
(299,171,o),
(299,229,c),
(259,229,l),
(262,177,o),
(264,126,o),
(262,74,cs),
(260,23,o),
(256,14,o),
(200,14,cs),
(62,14,l),
(92,69,o),
(120,120,o),
(149,165,c),
(146,191,o),
(141,223,o),
(136,258,c),
(230,258,l),
(231,272,l),
(134,272,l),
(118,384,o),
(98,520,o),
(92,571,cs),
(78,685,o),
(95,741,o),
(154,741,cs),
(197,741,o),
(218,706,o),
(223,613,cs),
(228,559,o),
(224,426,o),
(221,381,c),
(259,381,l),
(260,466,o),
(259,506,o),
(255,581,cs),
(249,692,o),
(223,756,o),
(156,756,cs),
(83,756,o),
(56,696,o),
(74,554,cs),
(78,517,o),
(90,387,o),
(101,272,c),
(57,272,l),
(56,258,l),
(103,258,l),
(113,165,l),
(77,116,o),
(43,61,o),
(5,0,c)
);
}
);
width = 334;
},
{
layerId = m002;
shapes = (
{
closed = 1;
nodes = (
(218,0,ls),
(275,0,o),
(295,18,o),
(299,71,cs),
(303,129,o),
(304,171,o),
(304,229,c),
(264,229,l),
(267,177,o),
(269,126,o),
(267,74,cs),
(265,23,o),
(261,14,o),
(205,14,cs),
(67,14,l),
(97,69,o),
(125,120,o),
(154,165,c),
(151,191,o),
(146,223,o),
(141,258,c),
(235,258,l),
(236,272,l),
(139,272,l),
(123,384,o),
(103,520,o),
(97,571,cs),
(83,685,o),
(100,741,o),
(159,741,cs),
(202,741,o),
(223,706,o),
(228,613,cs),
(233,559,o),
(229,426,o),
(226,381,c),
(264,381,l),
(265,466,o),
(264,506,o),
(260,581,cs),
(254,692,o),
(228,756,o),
(161,756,cs),
(88,756,o),
(61,696,o),
(79,554,cs),
(83,517,o),
(95,387,o),
(106,272,c),
(62,272,l),
(61,258,l),
(107.837,258,l),
(118,165,l),
(82,116,o),
(48,61,o),
(10,0,c)
);
}
);
width = 344;
}
);
unicode = 163;
},
{
glyphname = yen;
lastChange = "2022-04-03 13:26:02 +0000";
layers = (
{
layerId = m01;
shapes = (
{
closed = 1;
nodes = (
(179,0,l),
(176,75,o),
(171,256,o),
(169,365,c),
(262,365,l),
(263,379,l),
(168.875,379,l),
(168,427,l),
(262,427,l),
(263,441,l),
(214,441,l),
(298,750,l),
(255,750,l),
(240,675,o),
(215,553,o),
(188,441,c),
(125,441,l),
(98,553,o),
(73,675,o),
(58,750,c),
(15,750,l),
(99,441,l),
(51,441,l),
(50,427,l),
(144.947,427,l),
(144,379,l),
(51,379,l),
(50,365,l),
(144,365,l),
(142,256,o),
(137,75,o),
(134,0,c)
);
}
);
width = 313;
},
{
layerId = m002;
shapes = (
{
closed = 1;
nodes = (
(179,0,l),
(176,75,o),
(171,256,o),
(169,365,c),
(262,365,l),
(263,379,l),
(168.875,379,l),
(168,427,l),
(262,427,l),
(263,441,l),
(214,441,l),
(298,750,l),
(255,750,l),
(240,675,o),
(215,553,o),
(188,441,c),
(125,441,l),
(98,553,o),
(73,675,o),
(58,750,c),
(15,750,l),
(99,441,l),
(51,441,l),
(50,427,l),
(144.947,427,l),
(144,379,l),
(51,379,l),
(50,365,l),
(144,365,l),
(142,256,o),
(137,75,o),
(134,0,c)
);
}
);
width = 313;
}
);
unicode = 165;
},
{
glyphname = percent;
lastChange = "2022-04-03 14:18:48 +0000";
layers = (
{
layerId = m01;
shapes = (
{
closed = 1;
nodes = (
(128,0,l),
(326,750,l),
(305,750,l),
(107,0,l)
);
},
{
closed = 1;
nodes = (
(390,0,o),
(403,82,o),
(402,178,cs),
(401,243,ls),
(400,337,o),
(385,393,o),
(326,393,cs),
(267,393,o),
(252,337,o),
(251,243,cs),
(250,178,ls),
(249,82,o),
(261,0,o),
(326,0,cs)
);
},
{
closed = 1;
nodes = (
(294,10,o),
(283,45,o),
(283,161,cs),
(283,251,ls),
(283,354,o),
(294,383,o),
(326,383,cs),
(358,383,o),
(368,354,o),
(368,251,cs),
(368,161,ls),
(368,45,o),
(358,10,o),
(326,10,cs)
);
},
{
closed = 1;
nodes = (
(170,363,o),
(183,445,o),
(182,541,cs),
(181,606,ls),
(180,700,o),
(165,756,o),
(106,756,cs),
(47,756,o),
(32,700,o),
(31,606,cs),
(30,541,ls),
(29,445,o),
(41,363,o),
(106,363,cs)
);
},
{
closed = 1;
nodes = (
(74,373,o),
(63,408,o),
(63,524,cs),
(63,614,ls),
(63,717,o),
(74,746,o),
(106,746,cs),
(138,746,o),
(148,717,o),
(148,614,cs),
(148,524,ls),
(148,408,o),
(138,373,o),
(106,373,cs)
);
}
